<?xml version="1.0" standalone="no"?>
<!DOCTYPE svg PUBLIC "-//W3C//DTD SVG 1.1//EN" "http://www.w3.org/Graphics/SVG/1.1/DTD/svg11.dtd" >
<svg xmlns="http://www.w3.org/2000/svg">
<metadata>
This is a custom SVG webfont generated by Font Squirrel.
</metadata>
<defs>
<font id="webfontuwpFmfV5" horiz-adv-x="561" >
<font-face units-per-em="1000" ascent="780" descent="-220" />
<missing-glyph horiz-adv-x="313" />
<glyph unicode=" "  horiz-adv-x="313" />
<glyph unicode="&#x09;" horiz-adv-x="313" />
<glyph unicode="&#xa0;" horiz-adv-x="313" />
<glyph unicode="!" horiz-adv-x="331" d="M218 699v-458q0 -22 -23 -22h-58q-23 0 -23 22v458q0 23 23 23h58q23 0 23 -23zM223 85v-62q0 -23 -23 -23h-69q-23 0 -23 23v62q0 23 23 23h69q23 0 23 -23z" />
<glyph unicode="&#x22;" horiz-adv-x="400" d="M260 722h49q25 0 23 -23l-10 -186q-3 -23 -23 -23h-29q-20 0 -22 23l-10 186q-2 23 22 23zM90 722h49q25 0 23 -23l-10 -186q-3 -23 -23 -23h-28q-20 0 -22 23l-11 186q-1 11 5.5 17t16.5 6z" />
<glyph unicode="#" horiz-adv-x="739" d="M311 722h43q19 0 19 -13q0 -4 -2 -10l-49 -143h227l48 143q11 23 29 23h43q19 0 19 -13q0 -4 -2 -10l-49 -143h105q18 0 18 -14q0 -4 -1 -9l-15 -38q-7 -22 -25 -22h-113l-74 -224h105q17 0 17 -13q0 -4 -2 -9l-15 -41q-8 -20 -25 -20h-111l-49 -143q-8 -23 -29 -23h-44 q-18 0 -18 11q0 5 3 12l48 143h-227l-48 -143q-8 -23 -29 -23h-43q-18 0 -18 13q0 4 2 10l48 143h-100q-18 0 -18 13q0 4 2 10l14 38q8 22 26 22h107l75 224h-99q-19 0 -19 13q0 4 2 9l14 38q8 23 26 23h107l49 143q8 23 28 23zM518 473h-227l-74 -224h226z" />
<glyph unicode="$" horiz-adv-x="534" d="M247 830h38q23 0 23 -23v-85h101q23 0 23 -23v-40q0 -23 -23 -23h-150q-40 0 -63.5 -21.5t-23.5 -60.5v-42q0 -62 49 -78l157 -54q42 -14 65 -49.5t23 -86.5v-97q0 -63 -39 -103.5t-98 -42.5h-21v-86q0 -23 -23 -23h-38q-22 0 -22 23v85h-118q-23 0 -23 23v40q0 23 23 23 h169q39 0 62 21.5t23 60.5v45q0 63 -48 79l-157 54q-42 14 -65 50t-23 86v94q0 62 39.5 102.5t98.5 42.5h19v86q0 23 22 23z" />
<glyph unicode="%" horiz-adv-x="658" d="M526 722h56q12 0 16 -6q2 -3 2 -7t-3 -10l-434 -676q-16 -23 -32 -23h-55q-12 0 -16 6q-2 3 -2 6q0 5 5 11l433 676q14 23 30 23zM128 722h118q30 0 50 -19.5t20 -51.5v-135q0 -37 -27.5 -64.5t-64.5 -27.5h-96q-32 0 -51 19.5t-19 50.5v157q0 32 19 51.5t51 19.5z M434 298h96q32 0 51 -20t19 -51v-156q0 -32 -19 -51.5t-51 -19.5h-117q-32 0 -51.5 19.5t-19.5 51.5v134q0 38 27.5 65.5t64.5 27.5zM498 236h-54q-15 0 -21.5 -7t-6.5 -24v-111q0 -32 28 -32h54q29 0 29 32v111q0 17 -6.5 24t-22.5 7zM213 660h-53q-28 0 -28 -32v-111 q0 -31 28 -31h53q29 0 29 31v109q0 34 -29 34z" />
<glyph unicode="&#x26;" horiz-adv-x="733" d="M491 322v-299q0 -23 -23 -23h-273q-61 0 -99 38t-38 99v58q0 59 29 104t78 67q-49 22 -78 66.5t-29 103.5v49q0 61 37.5 99t99.5 38h254q23 0 23 -23v-41q0 -22 -23 -22h-207q-38 0 -59.5 -21t-21.5 -57v-38q0 -51 31.5 -81t82.5 -30h112v130q0 23 23 23h58q23 0 23 -23 v-130h156q23 0 23 -23v-41q0 -23 -23 -23h-156zM387 322h-112q-51 0 -82.5 -30.5t-31.5 -81.5v-48q0 -36 21 -56t59 -20h146v236z" />
<glyph unicode="'" horiz-adv-x="230" d="M90 722h49q25 0 23 -23l-10 -186q-3 -23 -23 -23h-28q-20 0 -22 23l-11 186q-1 11 5.5 17t16.5 6z" />
<glyph unicode="(" horiz-adv-x="365" d="M257 825h47q23 0 23 -23v-40q0 -23 -23 -23h-21q-48 0 -80 -32.5t-32 -80.5v-575q0 -48 32 -80.5t80 -32.5h21q23 0 23 -23v-40q0 -23 -23 -23h-47q-78 0 -133.5 55.5t-55.5 134.5v592q0 80 55.5 135.5t133.5 55.5z" />
<glyph unicode=")" horiz-adv-x="364" d="M61 825h47q78 0 133.5 -55.5t55.5 -135.5v-592q0 -79 -55.5 -134.5t-133.5 -55.5h-47q-23 0 -23 23v40q0 23 23 23h21q47 0 79 32.5t32 80.5v575q0 48 -32 80.5t-79 32.5h-21q-23 0 -23 23v40q0 23 23 23z" />
<glyph unicode="*" horiz-adv-x="502" d="M223 722h55q9 0 13.5 -5.5t2.5 -14.5l-16 -134l120 58q18 10 25 -8l19 -52q1 -4 1 -7q0 -4 -1 -8q-4 -7 -13 -8l-132 -27l92 -98q15 -13 -3 -25l-42 -34q-5 -5 -10 -5l-16 12l-67 117l-65 -117q-4 -8 -12 -10q-2 -1 -4 -1q-5 0 -9 3l-45 33q-8 6 -8 13q0 8 6 13l92 98 l-132 29q-15 1 -15 13q0 4 1 8l18 55q8 18 25 7l120 -59l-17 133q-2 8 3.5 14.5t13.5 6.5z" />
<glyph unicode="+" horiz-adv-x="564" d="M262 487h41q22 0 22 -23v-167h169q22 0 22 -24v-41q0 -23 -22 -23h-169v-167q0 -23 -22 -23h-41q-23 0 -23 23v167h-168q-23 0 -23 23v42q0 23 23 23h168v167q0 23 23 23z" />
<glyph unicode="," horiz-adv-x="223" d="M78 112h76q9 0 15.5 -6t6.5 -15v-91l-53 -160q-7 -22 -21 -22h-45l53 182h-32q-9 0 -15 6t-6 15v70q0 9 6 15t15 6z" />
<glyph unicode="-" horiz-adv-x="313" d="M38 253v41q0 23 23 23h191q23 0 23 -23v-41q0 -23 -23 -23h-191q-23 0 -23 23z" />
<glyph unicode="." horiz-adv-x="214" d="M69 112h76q8 0 14.5 -6t6.5 -15v-70q0 -9 -6.5 -15t-14.5 -6h-76q-9 0 -15 6t-6 15v70q0 9 6 15t15 6z" />
<glyph unicode="/" horiz-adv-x="410" d="M322 794h47q17 0 17 -11q0 -5 -3 -12l-309 -893q-8 -23 -31 -23h-47q-16 0 -16 11q0 5 3 12l308 893q11 23 31 23z" />
<glyph unicode="0" horiz-adv-x="569" d="M188 722h192q63 0 97 -34.5t34 -97.5v-456q0 -64 -34.5 -99t-99.5 -35h-186q-64 0 -98.5 34.5t-34.5 97.5v460q0 62 34 96t96 34zM325 636h-79q-85 0 -85 -84v-379q0 -87 86 -87h75q86 0 86 86v380q0 84 -83 84z" />
<glyph unicode="1" horiz-adv-x="569" d="M335 722h58q23 0 23 -23v-676q0 -23 -23 -23h-58q-23 0 -23 23v466h-193q-25 0 -25 24v40q0 24 25 24h193v122q0 23 23 23z" />
<glyph unicode="2" horiz-adv-x="569" d="M112 722h238q72 0 113.5 -41t41.5 -113v-67q0 -60 -47 -107l-298 -308h319q23 0 23 -22v-40q0 -24 -23 -24h-402q-23 0 -23 23v82q0 21 12 31l313 324q21 21 21 57v30q0 89 -90 89h-198q-23 0 -23 22v40q0 24 23 24z" />
<glyph unicode="3" horiz-adv-x="569" d="M92 722h231q75 0 118 -40.5t43 -112.5v-32q0 -61 -29 -105t-78 -66q49 -22 78 -67t29 -104v-43q0 -71 -43.5 -111.5t-119.5 -40.5h-228q-24 0 -24 24v40q0 22 23 22h178q109 0 109 97v27q0 52 -30.5 82t-81.5 30h-131q-24 0 -24 23v40q0 24 23 24h132q51 0 81.5 30 t30.5 81v19q0 97 -106 97h-180q-24 0 -24 22v40q0 24 23 24z" />
<glyph unicode="4" horiz-adv-x="569" d="M299 722h119q23 0 23 -23v-450h76q24 0 24 -24v-39q0 -24 -24 -24h-76v-139q0 -23 -23 -23h-52q-23 0 -23 23v139h-283q-24 0 -24 24v48q0 12 6 25l236 448q9 15 21 15zM343 249v390l-209 -390h209z" />
<glyph unicode="5" horiz-adv-x="569" d="M99 722h367q24 0 24 -24v-40q0 -22 -24 -22h-273q-14 0 -14 -15v-186h165q69 0 107.5 -39.5t38.5 -108.5v-142q0 -68 -38.5 -106.5t-107.5 -38.5h-245q-23 0 -23 24v39q0 23 23 23h194q93 0 93 92v77q0 93 -91 93h-196q-23 0 -23 24v327q0 23 23 23z" />
<glyph unicode="6" horiz-adv-x="569" d="M181 722h275q24 0 24 -24v-39q0 -23 -24 -23h-228q-62 0 -62 -62v-172l188 16q25 4 51 4q51 0 81 -31t30 -85v-187q0 -119 -120 -119h-216q-57 0 -87.5 31t-30.5 88v483q0 120 119 120zM352 335h-186v-184q0 -34 14 -49.5t49 -15.5h119q35 0 49.5 14.5t14.5 49.5v126 q0 59 -60 59z" />
<glyph unicode="7" horiz-adv-x="569" d="M82 722h405q22 0 22 -23v-55q0 -13 -5 -28l-273 -600q-9 -16 -22 -16h-54q-15 0 -20.5 11t0.5 22l272 593h-324q-25 0 -25 24v48q0 24 24 24z" />
<glyph unicode="8" horiz-adv-x="569" d="M189 722h190q60 0 96.5 -37t36.5 -96v-49q0 -68 -33 -113t-85 -64q52 -19 85 -64t33 -113v-54q0 -58 -36.5 -95t-96.5 -37h-190q-59 0 -96 37t-37 95v54q0 67 33 112.5t86 64.5q-53 19 -86 64.5t-33 112.5v49q0 59 37 96t96 37zM297 319h-25q-49 0 -80 -32t-31 -85v-39 q0 -36 21 -56.5t58 -20.5h89q36 0 57.5 20.5t21.5 56.5v38q0 54 -31 86t-80 32zM329 636h-89q-37 0 -58 -20.5t-21 -56.5v-35q0 -53 31 -85.5t80 -32.5h26q48 0 79 32.5t31 85.5v35q0 36 -21.5 56.5t-57.5 20.5z" />
<glyph unicode="9" horiz-adv-x="569" d="M390 0h-275q-24 0 -24 24v39q0 23 25 23h228q62 0 62 62v145l-189 -17q-19 -3 -50 -3q-51 0 -81.5 31t-30.5 84v214q0 120 121 120h216q57 0 87 -31t30 -88v-483q0 -120 -119 -120zM215 359h191v212q0 34 -15 49.5t-48 15.5h-119q-35 0 -49.5 -14.5t-14.5 -49.5v-153 q0 -60 55 -60z" />
<glyph unicode=":" horiz-adv-x="214" d="M69 505h76q8 0 14.5 -6t6.5 -15v-70q0 -8 -6.5 -14.5t-14.5 -6.5h-76q-8 0 -14.5 6.5t-6.5 14.5v70q0 9 6.5 15t14.5 6zM69 112h76q8 0 14.5 -6t6.5 -15v-69q0 -9 -6.5 -15.5t-14.5 -6.5h-76q-8 0 -14.5 6.5t-6.5 15.5v69q0 9 6.5 15t14.5 6z" />
<glyph unicode=";" horiz-adv-x="223" d="M78 112h76q9 0 15.5 -6t6.5 -15v-91l-53 -160q-7 -22 -21 -22h-45l53 182h-32q-9 0 -15 6t-6 15v70q0 9 6 15t15 6zM80 505h73q8 0 14.5 -6t6.5 -15v-70q0 -8 -6.5 -14.5t-14.5 -6.5h-73q-9 0 -15 6.5t-6 14.5v70q0 9 6 15t15 6z" />
<glyph unicode="&#x3c;" horiz-adv-x="433" d="M329 29l-270 180q-11 8 -11 18v48q0 14 10 20l271 181q8 5 15 5q9 0 16 -11l22 -34q5 -7 5 -13q0 -10 -12 -18l-223 -152l223 -153q12 -7 12 -17q0 -7 -5 -14l-22 -33q-7 -13 -16 -13q-7 0 -15 6z" />
<glyph unicode="=" horiz-adv-x="564" d="M71 398h423q22 0 22 -23v-41q0 -23 -22 -23h-423q-23 0 -23 23v41q0 23 23 23zM71 194h423q22 0 22 -23v-41q0 -22 -22 -22h-423q-23 0 -23 22v41q0 23 23 23z" />
<glyph unicode="&#x3e;" horiz-adv-x="433" d="M375 209l-270 -180q-8 -5 -14 -5q-10 0 -17 12l-22 33q-5 7 -5 14q0 10 12 17l223 153l-223 152q-11 7 -11 17q0 6 4 14l22 34q7 11 16 11q7 0 15 -5l271 -181q10 -7 10 -20v-48q0 -10 -11 -18z" />
<glyph unicode="?" horiz-adv-x="551" d="M91 722h246q64 0 105.5 -41t41.5 -106v-62q0 -49 -24 -86t-65 -50l-76 -22q-49 -16 -49 -76v-38q0 -22 -22 -22h-58q-23 0 -23 22v48q0 51 23 87t65 49l76 22q49 17 49 78v29q0 39 -23.5 60.5t-62.5 21.5h-203q-23 0 -23 23v40q0 23 23 23zM184 108h70q23 0 23 -23v-62 q0 -23 -23 -23h-70q-23 0 -23 23v62q0 23 23 23z" />
<glyph unicode="@" horiz-adv-x="886" d="M262 -81h363q107 0 107 106v457q0 23 24 23h40q23 0 23 -23v-480q0 -81 -45 -125.5t-126 -44.5h-408q-82 0 -127 45t-45 125v332q0 81 45 126t127 45h298q50 0 82 -31.5t32 -83.5v-366q0 -24 -23 -24h-68l-13 17l-153 -16q-28 -4 -51 -4q-48 0 -78.5 30.5t-30.5 79.5v93 q0 50 30 80t79 30q28 0 47 -3l157 -17v70q0 59 -62 59h-223q-109 0 -109 -107v-287q0 -106 108 -106zM548 232h-164q-24 0 -38 -14t-14 -38v-52q0 -24 14 -38.5t38 -14.5h164v157z" />
<glyph unicode="A" horiz-adv-x="634" d="M259 722h115q16 0 22 -17l200 -679q1 -3 1 -6q0 -7 -5 -12q-5 -8 -16 -8h-64q-18 0 -21 17l-39 130q-4 10 -14 10h-250q-10 0 -13 -10l-39 -130q-3 -17 -21 -17h-54q-12 0 -18.5 7.5t-4.5 17.5l200 680q6 17 21 17zM428 244l-114 388l-115 -388h229z" />
<glyph unicode="B" horiz-adv-x="580" d="M91 722h294q60 0 98.5 -38.5t38.5 -98.5v-49q0 -59 -29 -103.5t-78 -66.5q49 -21 78 -66t29 -105v-59q0 -60 -38 -98t-99 -38h-294q-23 0 -23 23v676q0 23 23 23zM305 322h-134v-223q0 -13 13 -13h150q39 0 61.5 21.5t22.5 59.5v43q0 51 -31 81.5t-82 30.5zM334 636h-150 q-13 0 -13 -13v-214h134q51 0 82 30t31 81v34q0 38 -22.5 60t-61.5 22z" />
<glyph unicode="C" horiz-adv-x="520" d="M230 722h229q24 0 24 -24v-39q0 -23 -25 -23h-188q-109 0 -109 -108v-334q0 -108 108 -108h190q24 0 24 -23v-39q0 -24 -25 -24h-229q-81 0 -126 45.5t-45 124.5v382q0 80 45 125t127 45z" />
<glyph unicode="D" horiz-adv-x="615" d="M92 722h292q82 0 127.5 -45t45.5 -125v-382q0 -79 -45 -124.5t-126 -45.5h-294q-24 0 -24 24v674q0 24 24 24zM344 636h-160q-13 0 -13 -14v-522q0 -14 13 -14h161q108 0 108 108v334q0 108 -109 108z" />
<glyph unicode="E" horiz-adv-x="521" d="M89 722h372q23 0 23 -22v-43q0 -21 -23 -21h-276q-14 0 -14 -14v-213h241q24 0 24 -24v-40q0 -23 -25 -23h-240v-223q0 -13 14 -13h276q23 0 23 -21v-44q0 -21 -23 -21h-371q-10 0 -16 6t-6 15v680q0 8 6 14.5t15 6.5z" />
<glyph unicode="F" horiz-adv-x="509" d="M171 622v-213h237q24 0 24 -24v-40q0 -23 -24 -23h-237v-301q0 -9 -6 -15t-15 -6h-61q-9 0 -15 6t-6 15v680q0 9 6 15t15 6h372q10 0 16.5 -6t6.5 -15v-44q0 -21 -23 -21h-277q-13 0 -13 -14z" />
<glyph unicode="G" horiz-adv-x="579" d="M58 170v382q0 80 45 125t127 45h232q9 0 15 -6t6 -15v-44q0 -21 -21 -21h-192q-109 0 -109 -108v-334q0 -108 108 -108h125q5 0 9 4.5t4 9.5v276q0 9 6 15t15 6h61q9 0 15.5 -6t6.5 -15v-355q0 -9 -6.5 -15t-15.5 -6h-260q-81 0 -126 45.5t-45 124.5z" />
<glyph unicode="H" horiz-adv-x="643" d="M472 322h-301v-299q0 -23 -23 -23h-57q-23 0 -23 23v676q0 23 23 23h57q23 0 23 -23v-290h301v290q0 23 23 23h57q23 0 23 -23v-676q0 -23 -23 -23h-57q-23 0 -23 23v299z" />
<glyph unicode="I" horiz-adv-x="239" d="M68 23v676q0 23 23 23h57q23 0 23 -23v-676q0 -23 -23 -23h-57q-23 0 -23 23z" />
<glyph unicode="J" horiz-adv-x="425" d="M254 168v531q0 23 23 23h58q23 0 23 -23v-569q0 -59 -36 -94.5t-96 -35.5h-183q-24 0 -24 24v39q0 23 24 23h130q38 0 59.5 22t21.5 60z" />
<glyph unicode="K" horiz-adv-x="582" d="M91 722h57q23 0 23 -23v-290h89q33 0 46 30l117 268q6 15 20 15h64q12 0 19 -8.5t3 -20.5l-123 -277q-10 -29 -38 -50q27 -22 38 -51l126 -288q2 -4 2 -8q0 -6 -4 -11q-8 -8 -19 -8h-63q-14 0 -22 15l-120 277q-5 12 -18 21t-28 9h-89v-299q0 -23 -23 -23h-57 q-23 0 -23 23v676q0 23 23 23z" />
<glyph unicode="L" horiz-adv-x="502" d="M171 699v-599q0 -5 4.5 -9.5t9.5 -4.5h275q23 0 23 -23v-40q0 -23 -23 -23h-369q-23 0 -23 23v676q0 23 23 23h57q23 0 23 -23z" />
<glyph unicode="M" horiz-adv-x="787" d="M225 704l169 -569l168 569q4 18 22 18h112q23 0 23 -23v-676q0 -23 -23 -23h-50q-24 0 -24 23v581l-175 -586q-5 -18 -23 -18h-60q-17 0 -22 18l-176 586v-581q0 -23 -23 -23h-52q-23 0 -23 23v676q0 23 23 23h112q17 0 22 -18z" />
<glyph unicode="N" horiz-adv-x="640" d="M426 16l-260 583v-576q0 -23 -23 -23h-52q-23 0 -23 23v676q0 23 23 23h100q20 0 24 -16l260 -584v577q0 23 23 23h52q23 0 23 -23v-676q0 -23 -23 -23h-101q-19 0 -23 16z" />
<glyph unicode="O" horiz-adv-x="605" d="M547 552v-382q0 -79 -45 -124.5t-126 -45.5h-147q-81 0 -126 45t-45 126v381q0 81 45 125.5t128 44.5h143q83 0 128 -44.5t45 -125.5zM443 193v336q0 107 -108 107h-65q-109 0 -109 -107v-336q0 -107 107 -107h68q107 0 107 107z" />
<glyph unicode="P" horiz-adv-x="560" d="M351 312h-180v-289q0 -23 -23 -23h-57q-23 0 -23 23v676q0 23 23 23h259q82 0 127 -45t45 -125v-69q0 -79 -45.5 -125t-125.5 -46zM171 399h140q107 0 107 106v26q0 105 -108 105h-126q-5 0 -9 -4.5t-4 -9.5v-223z" />
<glyph unicode="Q" horiz-adv-x="605" d="M377 0h-31v-120q0 -25 -23 -25h-41q-24 0 -24 25v120h-30q-81 0 -125.5 45t-44.5 126v381q0 81 45 125.5t128 44.5h143q83 0 128 -44.5t45 -125.5v-382q0 -79 -45 -124.5t-125 -45.5zM161 529v-336q0 -107 107 -107h68q107 0 107 107v336q0 107 -108 107h-65 q-109 0 -109 -107z" />
<glyph unicode="R" horiz-adv-x="582" d="M91 722h258q83 0 128 -44.5t45 -125.5v-58q0 -66 -37.5 -106t-97.5 -50q15 -15 27 -44l118 -267q2 -4 2 -8q0 -6 -4 -11q-6 -8 -18 -8h-66q-14 0 -21 15l-118 277q-5 12 -18 21t-28 9h-90v-299q0 -23 -22 -23h-58q-23 0 -23 23v676q0 23 23 23zM310 636h-125 q-5 0 -9.5 -4.5t-4.5 -9.5v-213h140q107 0 107 104v19q0 104 -108 104z" />
<glyph unicode="S" horiz-adv-x="526" d="M335 279l-209 77q-42 16 -65 52t-23 84v69q0 74 43 117.5t118 43.5h230q23 0 23 -23v-40q0 -23 -23 -23h-195q-93 0 -93 -88v-26q0 -62 50 -79l209 -78q88 -30 88 -135v-69q0 -75 -43 -118t-121 -43h-245q-23 0 -23 23v40q0 23 23 23h211q49 0 71.5 21t22.5 66v27 q0 63 -49 79z" />
<glyph unicode="T" horiz-adv-x="543" d="M220 23v613h-186q-23 0 -23 23v40q0 23 23 23h474q24 0 24 -23v-40q0 -23 -24 -23h-185v-613q0 -23 -23 -23h-57q-23 0 -23 23z" />
<glyph unicode="U" horiz-adv-x="625" d="M89 722h61q9 0 15 -6t6 -15v-508q0 -107 107 -107h68q107 0 107 107v508q0 9 6.5 15t14.5 6h61q9 0 15.5 -6t6.5 -15v-531q0 -79 -45 -124.5t-126 -45.5h-147q-81 0 -126 45t-45 126v530q0 9 6 15t15 6z" />
<glyph unicode="V" horiz-adv-x="629" d="M60 722h61q18 0 21 -17l176 -615l176 615q3 17 21 17h56q9 0 16 -7t5 -18l-198 -680q-5 -17 -20 -17h-118q-17 0 -20 17l-198 679q-1 3 -1 6q0 7 5 12q8 8 18 8z" />
<glyph unicode="W" horiz-adv-x="869" d="M57 722h63q17 0 22 -21l112 -608l121 609q2 20 20 20h79q17 0 22 -20l121 -609l111 608q5 21 22 21h62q19 0 19 -18v-5l-125 -678q-2 -21 -21 -21h-120q-18 0 -20 20l-110 558l-110 -558q-3 -20 -21 -20h-119q-17 0 -22 21l-125 679q-3 22 19 22z" />
<glyph unicode="X" horiz-adv-x="615" d="M52 722h73q12 0 19 -10l164 -257l163 256q8 11 19 11h71q10 0 18 -10q4 -5 4 -10.5t-4 -11.5l-210 -328l211 -330q4 -6 4 -12q0 -4 -2 -9q-6 -11 -20 -11h-73q-12 0 -19 10l-163 257l-164 -257q-7 -10 -19 -10h-71q-12 0 -19 10q-3 6 -3 11t4 11l211 328l-212 330 q-3 5 -3 10t3 10q5 12 18 12z" />
<glyph unicode="Y" horiz-adv-x="590" d="M130 712l166 -300l166 300q7 10 18 10h70q10 0 18 -10q4 -6 4 -12q0 -5 -3 -10l-222 -389v-278q0 -23 -23 -23h-58q-23 0 -23 23v278l-221 389q-3 4 -3 9t3 11q5 12 18 12h73q13 0 17 -10z" />
<glyph unicode="Z" horiz-adv-x="531" d="M61 722h410q10 0 16.5 -6t6.5 -15v-94q0 -9 -6 -15l-346 -506h329q23 0 23 -23v-40q0 -23 -23 -23h-412q-9 0 -15 6t-6 15v93q0 10 5 15l347 507h-329q-23 0 -23 23v40q0 23 23 23z" />
<glyph unicode="[" horiz-adv-x="365" d="M91 825h213q23 0 23 -23v-40q0 -23 -23 -23h-119q-5 0 -9.5 -4.5t-4.5 -9.5v-773q0 -5 4.5 -9.5t9.5 -4.5h119q23 0 23 -23v-40q0 -23 -23 -23h-213q-23 0 -23 23v927q0 23 23 23z" />
<glyph unicode="\" horiz-adv-x="428" d="M29 794h46q22 0 30 -23l310 -893q2 -6 2 -11q0 -12 -16 -12h-47q-21 0 -32 23l-308 893q-3 7 -3 12q0 11 18 11z" />
<glyph unicode="]" horiz-adv-x="365" d="M61 825h213q23 0 23 -23v-927q0 -23 -23 -23h-213q-23 0 -23 23v40q0 23 23 23h119q6 0 10 4.5t4 9.5v773q0 5 -4 9.5t-10 4.5h-119q-23 0 -23 23v40q0 23 23 23z" />
<glyph unicode="^" horiz-adv-x="479" d="M126 289h-46q-10 0 -18 7q-5 6 -5 13q0 3 1 6l114 390q5 17 21 17h94q15 0 20 -17l114 -391q1 -3 1 -6q0 -7 -5 -12q-7 -7 -16 -7h-44q-16 0 -21 17l-95 326l-94 -326q-5 -17 -21 -17z" />
<glyph unicode="_" horiz-adv-x="545" d="M10 -123v24q0 23 23 23h479q23 0 23 -23v-24q0 -22 -23 -22h-479q-23 0 -23 22z" />
<glyph unicode="`" horiz-adv-x="307" d="M62 682l32 33q6 5 11 5l13 -6l126 -128q8 -8 8 -13t-6 -9l-21 -18q-10 -3 -10.5 -3t-9.5 5l-142 112q-6 4 -6 11q0 6 5 11z" />
<glyph unicode="a" horiz-adv-x="552" d="M116 505h254q51 0 82.5 -31.5t31.5 -83.5v-366q0 -24 -23 -24h-67l-13 17l-153 -16q-31 -4 -51 -4q-49 0 -79 30.5t-30 79.5v90q0 49 30 79.5t79 30.5q21 0 46 -4l158 -16v73q0 59 -63 59h-202q-23 0 -23 23v40q0 23 23 23zM381 232h-165q-23 0 -37.5 -14t-14.5 -38v-52 q0 -24 14.5 -38.5t37.5 -14.5h165v157z" />
<glyph unicode="b" d="M91 794h57q23 0 23 -23v-285l167 16q19 3 46 3q50 0 79.5 -30t29.5 -80v-288q0 -49 -30 -79.5t-79 -30.5q-4 0 -23 1.5t-29 2.5l-161 16l-13 -17h-67q-23 0 -23 24v747q0 23 23 23zM336 419h-165v-336h165q25 0 39.5 14.5t14.5 39.5v228q0 24 -14.5 39t-39.5 15z" />
<glyph unicode="c" horiz-adv-x="453" d="M181 505h212q10 0 16 -6t6 -15v-44q0 -21 -22 -21h-160q-29 0 -45 -16.5t-16 -45.5v-209q0 -29 16 -45.5t45 -16.5h160q10 0 16 -6t6 -15v-44q0 -9 -6 -15t-16 -6h-212q-51 0 -82 31t-31 84v275q0 54 31 84.5t82 30.5z" />
<glyph unicode="d" d="M413 794h57q23 0 23 -23v-747q0 -24 -23 -24h-67l-13 17l-162 -16q-9 0 -27.5 -2t-23.5 -2q-49 0 -79 30.5t-30 79.5v288q0 50 29.5 80t79.5 30q27 0 46 -3l167 -16v285q0 23 23 23zM390 419h-165q-25 0 -39.5 -14.5t-14.5 -38.5v-229q0 -24 15 -38.5t41 -14.5h163v335z " />
<glyph unicode="e" horiz-adv-x="542" d="M68 114v280q0 51 30.5 81t79.5 30h196q49 0 79.5 -30t30.5 -81v-85q0 -48 -30.5 -78t-76.5 -30h-206v-54q0 -28 17 -44.5t44 -16.5h194q23 0 23 -22v-41q0 -23 -23 -23h-245q-51 0 -82 31t-31 83zM171 371v-117l169 14q48 5 48 51v53q0 23 -14 37.5t-36 14.5h-114 q-24 0 -38.5 -14.5t-14.5 -38.5z" />
<glyph unicode="f" horiz-adv-x="455" d="M71 505h57v172q0 54 31.5 85.5t82.5 31.5h171q23 0 23 -23v-40q0 -23 -23 -23h-120q-27 0 -44 -16.5t-17 -44.5v-142h156q22 0 22 -23v-40q0 -23 -22 -23h-156v-396q0 -23 -23 -23h-58q-23 0 -23 23v396h-57q-23 0 -23 23v40q0 23 23 23z" />
<glyph unicode="g" d="M493 481v-582q0 -53 -31 -84.5t-82 -31.5h-234q-23 0 -23 23v41q0 23 23 23h182q29 0 45.5 16t16.5 45v88l-167 -16q-36 -3 -46 -3q-50 0 -79.5 30t-29.5 80v288q0 49 30 79.5t79 30.5q6 0 27 -2t25 -2l161 -16l13 17h67q23 0 23 -24zM224 86h166v335h-166 q-24 0 -38.5 -14.5t-14.5 -38.5v-228q0 -24 14.5 -39t38.5 -15z" />
<glyph unicode="h" d="M493 395v-372q0 -23 -23 -23h-57q-23 0 -23 23v342q0 24 -14.5 39t-38.5 15h-166v-396q0 -23 -23 -23h-57q-23 0 -23 23v748q0 23 23 23h57q23 0 23 -23v-285l167 16q19 3 47 3q49 0 78.5 -30t29.5 -80z" />
<glyph unicode="i" horiz-adv-x="238" d="M68 23v459q0 23 23 23h57q23 0 23 -23v-459q0 -23 -23 -23h-57q-23 0 -23 23zM62 638v59q0 23 23 23h69q23 0 23 -23v-59q0 -23 -23 -23h-69q-23 0 -23 23z" />
<glyph unicode="j" horiz-adv-x="298" d="M127 -74v556q0 23 23 23h58q23 0 23 -23v-588q0 -51 -32.5 -81t-84.5 -30h-110q-24 0 -24 23v40q0 24 23 24h63q61 0 61 56zM121 638v59q0 23 23 23h69q23 0 23 -23v-59q0 -23 -23 -23h-69q-23 0 -23 23z" />
<glyph unicode="k" horiz-adv-x="533" d="M91 794h57q23 0 23 -23v-470h86q34 0 46 29l71 160q6 15 21 15h66q10 0 17.5 -8.5t2.5 -18.5l-76 -171q-11 -28 -39 -50q28 -22 39 -50l79 -178q2 -5 2 -10t-2 -10q-6 -9 -19 -9h-66q-14 0 -21 16l-75 169q-13 28 -46 28h-86v-190q0 -23 -23 -23h-57q-23 0 -23 23v748 q0 23 23 23z" />
<glyph unicode="l" horiz-adv-x="239" d="M90 794h58q23 0 23 -23v-748q0 -23 -23 -23h-58q-22 0 -22 23v748q0 23 22 23z" />
<glyph unicode="m" horiz-adv-x="845" d="M431 487l196 18q6 0 20.5 1.5t20.5 1.5q48 0 78.5 -30.5t30.5 -79.5v-375q0 -23 -23 -23h-58q-23 0 -23 23v345q0 24 -14.5 39t-38.5 15h-161q15 -20 15 -46v-353q0 -23 -23 -23h-57q-23 0 -23 23v345q0 24 -14.5 39t-38.5 15h-147v-399q0 -23 -23 -23h-57q-23 0 -23 23 v459q0 23 23 23h67l13 -16l154 16q36 3 41 3q38 0 65 -21z" />
<glyph unicode="n" d="M68 23v459q0 23 22 23h68l13 -16l172 16q4 0 19.5 1.5t21.5 1.5q49 0 79 -30.5t30 -79.5v-375q0 -23 -23 -23h-57q-23 0 -23 23v345q0 24 -14.5 39t-39.5 15h-165v-399q0 -23 -23 -23h-57q-23 0 -23 23z" />
<glyph unicode="o" horiz-adv-x="580" d="M68 111v283q0 51 30.5 81t79.5 30h224q50 0 80 -30t30 -81v-283q0 -51 -30.5 -81t-79.5 -30h-224q-49 0 -79.5 30t-30.5 81zM171 361v-217q0 -26 16 -42t41 -16h122q26 0 42 16t16 42v217q0 26 -16 42t-42 16h-122q-25 0 -41 -16t-16 -42z" />
<glyph unicode="p" d="M493 398v-288q0 -50 -29.5 -80t-79.5 -30q-12 0 -45 3l-168 16v-213q0 -23 -23 -23h-57q-23 0 -23 23v675q0 24 23 24h67l13 -17l164 16q6 0 24 2t26 2q48 0 78 -30.5t30 -79.5zM171 86h165q25 0 39.5 15t14.5 39v228q0 25 -14.5 39.5t-39.5 14.5h-165v-336z" />
<glyph unicode="q" d="M68 110v288q0 49 30 79.5t79 30.5q6 0 50 -4l163 -16l13 17h67q23 0 23 -23v-676q0 -23 -23 -23h-57q-23 0 -23 23v213l-167 -16q-39 -3 -46 -3q-50 0 -79.5 30t-29.5 80zM225 86h165v336h-165q-24 0 -39 -14.5t-15 -39.5v-228q0 -24 15 -39t39 -15z" />
<glyph unicode="r" horiz-adv-x="417" d="M376 409h-205v-386q0 -23 -23 -23h-57q-23 0 -23 23v459q0 23 23 23h67l13 -29l195 30q6 1 10 1q22 0 22 -23v-54q0 -9 -6 -15t-16 -6z" />
<glyph unicode="s" horiz-adv-x="505" d="M320 198l-180 33q-39 7 -62 35.5t-23 72.5v53q0 52 30.5 82.5t81.5 30.5h240q10 0 16 -6t6 -15v-36q0 -9 -6 -15t-16 -6h-209q-24 0 -39 -14t-15 -38v-17q0 -42 41 -50l180 -33q38 -9 61.5 -37t23.5 -72v-52q0 -52 -30.5 -83t-80.5 -31h-241q-21 0 -21 21v36q0 9 6 15 t15 6h210q24 0 38 14t14 37v18q0 41 -40 51z" />
<glyph unicode="t" horiz-adv-x="452" d="M125 117v302h-54q-23 0 -23 23v40q0 23 23 23h54v122q0 23 23 23h58q23 0 23 -23v-122h156q22 0 22 -23v-41q0 -22 -22 -22h-156v-272q0 -28 17 -44.5t44 -16.5h120q23 0 23 -23v-40q0 -23 -23 -23h-171q-51 0 -82.5 31.5t-31.5 85.5z" />
<glyph unicode="u" d="M493 482v-459q0 -23 -22 -23h-68l-13 17l-164 -16q-5 0 -24 -2t-25 -2q-49 0 -79 30.5t-30 78.5v376q0 23 23 23h57q23 0 23 -23v-345q0 -25 14.5 -39.5t38.5 -14.5h166v399q0 23 23 23h57q23 0 23 -23z" />
<glyph unicode="v" horiz-adv-x="520" d="M59 505h61q15 0 21 -17l119 -412l120 412q6 17 21 17h60q11 0 17 -7q5 -5 5 -11q0 -4 -2 -8l-133 -461q-6 -18 -20 -18h-135q-17 0 -22 18l-132 461q-1 4 -1 7q0 7 4 12q5 7 17 7z" />
<glyph unicode="w" horiz-adv-x="809" d="M54 505h70q14 0 18 -16l102 -407l102 408q6 15 17 15h84q11 0 17 -15l101 -409l103 408q1 16 16 16h71q9 0 13 -5q4 -3 4 -7q0 -3 -1 -5l-116 -472q-4 -16 -18 -16h-119q-12 0 -18 15l-96 374l-95 -374q-6 -15 -18 -15h-120q-13 0 -17 16l-116 472q-1 2 -1 5q0 4 3 7 q5 5 14 5z" />
<glyph unicode="x" horiz-adv-x="532" d="M60 505h70q12 0 21 -12l115 -159l116 160q8 11 20 11h74q10 0 15 -10q2 -4 2 -9q0 -6 -4 -12l-162 -221l164 -222q4 -5 3.5 -10t-3.5 -11q-7 -10 -19 -10h-68q-13 0 -22 13l-116 158l-116 -159q-9 -12 -24 -12h-65q-12 0 -19 10q-4 5 -4 10t4 11l163 222l-162 221 q-4 5 -4 11q0 4 3 9q6 11 18 11z" />
<glyph unicode="y" horiz-adv-x="520" d="M59 505h61q16 0 20 -16l119 -413l120 412q6 17 21 17h61q10 0 17 -7q4 -4 4 -11q0 -3 -1 -7l-197 -678q-3 -19 -20 -19h-59q-10 0 -17 8t-5 19l57 190h-49q-17 0 -20 17l-133 462q-1 3 -1 6q0 7 5 13q5 7 17 7z" />
<glyph unicode="z" horiz-adv-x="492" d="M61 505h371q23 0 23 -23v-73q0 -14 -8 -20l-287 -303h272q23 0 23 -23v-40q0 -23 -23 -23h-371q-23 0 -23 23v73q0 11 7 21l287 302h-271q-23 0 -23 23v40q0 23 23 23z" />
<glyph unicode="{" horiz-adv-x="422" d="M241 825h121q23 0 23 -23v-40q0 -23 -23 -23h-70q-29 0 -45.5 -16.5t-16.5 -46.5v-209q0 -94 -79 -128q79 -36 79 -128v-210q0 -30 16.5 -46.5t45.5 -16.5h71q22 0 22 -23v-40q0 -23 -23 -23h-121q-51 0 -82.5 31.5t-31.5 85.5v256q0 32 -19 51.5t-52 19.5h-13 q-23 0 -23 23v40q0 23 23 23h12q34 0 53 19t19 52v255q0 54 31.5 85.5t82.5 31.5z" />
<glyph unicode="|" horiz-adv-x="239" d="M90 825h58q23 0 23 -23v-996q0 -23 -23 -23h-58q-22 0 -22 23v996q0 23 22 23z" />
<glyph unicode="}" horiz-adv-x="422" d="M61 825h122q51 0 82 -31.5t31 -85.5v-256q0 -32 19 -51t52 -19h13q22 0 22 -23v-40q0 -23 -22 -23h-13q-33 0 -52 -19.5t-19 -51.5v-256q0 -54 -31 -85.5t-82 -31.5h-122q-23 0 -23 23v40q0 23 23 23h69q30 0 47 16.5t17 46.5v210q0 91 78 128q-33 13 -55.5 45.5 t-22.5 82.5v209q0 30 -17 46.5t-47 16.5h-69q-23 0 -23 23v40q0 23 23 23z" />
<glyph unicode="~" horiz-adv-x="631" d="M60 217l51 66q36 47 100 51q8 1 16 1q54 0 95 -28l69 -44q14 -9 28.5 -7.5t20.5 12.5l20 31q11 18 28 18h77q9 0 13 -5q1 -3 1 -6q0 -4 -3 -10l-49 -75q-19 -31 -59 -41q-23 -7 -47 -7l-33 3q-40 8 -70 26l-63 37q-17 10 -31 10q-18 0 -30 -16l-16 -24q-12 -15 -26 -15 h-78q-11 0 -16 8q-1 4 -1 7q0 5 3 8z" />
<glyph unicode="&#xa1;" horiz-adv-x="331" d="M114 -194v458q0 22 23 22h58q23 0 23 -22v-458q0 -23 -23 -23h-58q-23 0 -23 23zM108 420v62q0 23 23 23h69q23 0 23 -23v-62q0 -23 -23 -23h-69q-23 0 -23 23z" />
<glyph unicode="&#xa2;" horiz-adv-x="453" d="M240 830h38q22 0 22 -23v-85h94q21 0 21 -23v-40q0 -23 -23 -23h-156q-64 0 -64 -64v-205q0 -64 64 -64h156q23 0 23 -23v-42q0 -21 -21 -21h-94v-85q0 -23 -22 -23h-38q-22 0 -22 23v85h-43q-48 2 -77.5 33t-29.5 82v275q0 53 29 83t78 32h43v85q0 23 22 23z" />
<glyph unicode="&#xa3;" horiz-adv-x="578" d="M339 722h111q23 0 23 -23v-40q0 -23 -23 -23h-69q-45 0 -74 -29t-29 -75v-134h172q23 0 23 -23v-41q0 -22 -23 -22h-172v-42q0 -40 -4 -63l-11 -121h254q23 0 23 -23v-40q0 -23 -23 -23h-456q-23 0 -23 23v40q0 23 23 23h114v226h-114q-23 0 -23 22v41q0 23 23 23h114 v160q0 71 46.5 117.5t117.5 46.5z" />
<glyph unicode="&#xa4;" horiz-adv-x="577" d="M497 595l32 -32q5 -5 5 -12t-4 -11l-98 -97l13 -14q33 -35 33 -76q0 -45 -34 -81l-12 -12l98 -98q6 -6 6 -12t-5 -11l-31 -32q-5 -5 -12 -5t-11 4l-100 100l-12 -13q-34 -35 -79 -35q-43 0 -79 36l-12 13l-97 -99q-5 -5 -12 -5q-6 0 -11 5l-32 32q-5 5 -5 11t6 12l98 97 l-14 13q-35 35 -35 77q0 44 36 80l12 12l-99 99q-5 5 -5 11t6 13l31 31q5 6 11 6l11 -6l99 -99l13 12q36 36 78 36l2 -1q43 0 78 -35l11 -12l98 97q6 6 11 6zM383 397l-52 52q-20 20 -44 20q-25 0 -47 -21l-49 -50q-21 -22 -21 -46t20 -45l51 -53q20 -20 44 -20q25 0 47 22 l50 50q21 21 21 47q0 24 -20 44z" />
<glyph unicode="&#xa5;" horiz-adv-x="590" d="M40 722h73q12 0 19 -12l164 -298l165 298q5 12 19 12h70q12 0 19 -10q3 -5 3 -10.5t-3 -10.5l-222 -390v-45h155q23 0 23 -23v-37q0 -23 -23 -23h-155v-150q0 -23 -23 -23h-59q-22 0 -22 23v150h-155q-23 0 -23 23v37q0 23 23 23h155v45l-222 390q-2 5 -2 9q0 6 3 12 q6 10 18 10z" />
<glyph unicode="&#xa6;" horiz-adv-x="239" d="M90 193h58q23 0 23 -23v-364q0 -23 -23 -23h-58q-22 0 -22 23v364q0 23 22 23zM90 825h58q23 0 23 -23v-364q0 -23 -23 -23h-57q-23 0 -23 23v364q0 23 22 23z" />
<glyph unicode="&#xa7;" horiz-adv-x="559" d="M215 722h217q23 0 23 -23v-40q0 -23 -23 -23h-174q-40 0 -63.5 -21.5t-23.5 -60.5v-40q0 -59 50 -79l182 -68q42 -14 65 -50t23 -89v-74q0 -47 -19 -76q19 -30 19 -77v-71q0 -64 -41.5 -105.5t-105.5 -41.5h-235q-23 0 -23 23v41q0 22 23 22h192q39 0 62.5 22t23.5 60v41 q0 60 -48 80l-182 67q-42 15 -65.5 51t-23.5 85v76q0 49 18 77q-18 28 -18 77v70q0 65 41.5 106t105.5 41zM161 372q-7 -15 -7 -37v-47q0 -59 49 -78l168 -61q18 -7 27 -15q6 14 6 35v49q0 60 -48 79l-166 60q-16 5 -29 15z" />
<glyph unicode="&#xa8;" horiz-adv-x="446" d="M286 624v53q0 19 20 19h60q20 0 20 -19v-53q0 -20 -20 -20h-60q-20 0 -20 20zM60 624v53q0 19 21 19h60q19 0 19 -19v-53q0 -20 -19 -20h-60q-21 0 -21 20z" />
<glyph unicode="&#xa9;" horiz-adv-x="698" d="M241 722h216q89 0 136 -47t47 -133v-362q0 -85 -47 -132.5t-134 -47.5h-220q-87 0 -134 47.5t-47 132.5v362q0 85 48 132.5t135 47.5zM447 646h-197q-116 0 -116 -115v-340q0 -115 114 -115h200q116 0 116 115v340q0 115 -117 115zM297 586h181q7 0 12 -5t5 -12v-35 q0 -7 -5 -12t-12 -5h-144q-27 0 -42.5 -15t-15.5 -41v-199q0 -26 15.5 -41.5t41.5 -15.5h145q7 0 12 -5t5 -12v-34q0 -18 -17 -18h-181q-46 0 -74.5 28t-28.5 76v242q0 48 28.5 76t74.5 28z" />
<glyph unicode="&#xaa;" horiz-adv-x="352" d="M85 722h145q29 0 47 -18t18 -48v-206q0 -14 -14 -14h-44l-7 10l-80 -9q-5 0 -12 -1t-11.5 -1.5t-6.5 -0.5q-28 0 -45 17.5t-17 45.5v51q0 28 17 45t45 17q5 0 27 -2l83 -9v34q0 20 -8 27.5t-26 7.5h-111q-13 0 -13 13v28q0 13 13 13zM230 564h-85q-24 0 -24 -26v-31 q0 -27 24 -27h85v84z" />
<glyph unicode="&#xab;" horiz-adv-x="576" d="M501 579l24 -29q5 -6 5 -12q0 -9 -12 -19l-174 -156l174 -157q11 -11 11 -21q0 -5 -4 -11l-24 -29q-9 -11 -18 -11q-7 0 -13 5l-203 180q-10 9 -10 17v49q0 11 9 19l204 181q6 6 12 6q9 0 19 -12zM292 579l24 -29q6 -6 6 -12q0 -9 -13 -19l-174 -156l174 -157 q11 -11 11 -21q0 -6 -4 -11l-24 -28q-9 -12 -19 -12q-6 0 -12 5l-202 180q-11 9 -11 17v49q0 12 10 19l203 181q6 6 13 6q9 0 18 -12z" />
<glyph unicode="&#xac;" horiz-adv-x="565" d="M71 294h424q22 0 22 -23v-229q0 -23 -22 -23h-41q-23 0 -23 23v165h-360q-23 0 -23 23v41q0 23 23 23z" />
<glyph unicode="&#xad;" horiz-adv-x="313" d="M38 253v41q0 23 23 23h191q23 0 23 -23v-41q0 -23 -23 -23h-191q-23 0 -23 23z" />
<glyph unicode="&#xae;" horiz-adv-x="510" d="M58 474v219q0 47 27.5 74t73.5 27h193q45 0 73 -27.5t28 -74.5v-218q0 -47 -27.5 -74.5t-73.5 -27.5h-193q-46 0 -73.5 27.5t-27.5 74.5zM115 686v-206q0 -23 14.5 -37t36.5 -14h178q23 0 37 14t14 37v206q0 23 -14.5 36.5t-36.5 13.5h-178q-22 0 -36.5 -13.5 t-14.5 -36.5zM176 709h113q29 0 45 -15.5t16 -43.5v-29q0 -44 -44 -54l9 -15l42 -84q1 -2 1 -3q0 -3 -2 -5q-2 -3 -7 -3h-38q-7 0 -10 7l-40 85q-5 11 -15 11h-29v-93q0 -10 -8 -10h-33q-9 0 -9 9v233q0 10 9 10zM269 666h-45q-7 0 -7 -7v-59h52q29 0 29 27v11q0 28 -29 28z " />
<glyph unicode="&#xaf;" horiz-adv-x="409" d="M58 627v23q0 23 23 23h263q23 0 23 -23v-23q0 -23 -23 -23h-263q-23 0 -23 23z" />
<glyph unicode="&#xb0;" horiz-adv-x="449" d="M30 486v85q0 66 42 108.5t108 42.5h86q67 0 110 -42.5t43 -110.5v-82q0 -68 -42.5 -111t-109.5 -43h-87q-66 0 -108 43t-42 110zM114 558v-61q0 -38 22.5 -61t58.5 -23h56q38 0 61 22.5t23 61.5v61q0 39 -23.5 61.5t-60.5 22.5h-55q-36 0 -59 -23t-23 -61z" />
<glyph unicode="&#xb1;" horiz-adv-x="564" d="M262 601h41q22 0 22 -23v-168h169q22 0 22 -23v-41q0 -22 -22 -22h-169v-169q0 -23 -22 -23h-41q-23 0 -23 23v169h-168q-23 0 -23 22v41q0 23 23 23h168v168q0 23 23 23zM71 86h423q22 0 22 -23v-41q0 -22 -22 -22h-423q-23 0 -23 22v41q0 23 23 23z" />
<glyph unicode="&#xb2;" horiz-adv-x="356" d="M86 722h148q29 0 45.5 -16.5t16.5 -45.5v-34q0 -30 -21 -45l-138 -99h145q12 0 12 -14v-31q0 -13 -12 -13h-209q-13 0 -13 12v47q0 14 7 18l146 108q9 6 9 19v10q0 25 -28 25h-108q-13 0 -13 13v32q0 14 13 14z" />
<glyph unicode="&#xb3;" horiz-adv-x="341" d="M73 722h149q27 0 43 -16.5t16 -43.5v-17q0 -50 -44 -70q44 -20 44 -71v-20q0 -28 -16.5 -44t-42.5 -16h-148q-14 0 -14 13v33q0 13 13 13h103q36 0 36 26v9q0 29 -37 29h-82q-13 0 -13 13v29q0 13 13 13h82q37 0 37 30v9q0 22 -37 22h-101q-14 0 -14 13v32q0 14 13 14z " />
<glyph unicode="&#xb4;" horiz-adv-x="307" d="M213 715l32 -33q6 -6 6 -11q0 -6 -7 -11l-142 -112q-8 -5 -13 -5q-2 0 -3 1q-2 0 -4 2l-21 18q-6 4 -6 9t8 13l126 128q7 6 13 6t11 -5z" />
<glyph unicode="&#xb5;" horiz-adv-x="559" d="M90 505h57q23 0 23 -23v-345q0 -25 14.5 -39.5t38.5 -14.5h166v399q0 23 23 23h57q23 0 23 -23v-461q0 -9 -6 -15t-15 -6h-69l-13 17l-145 -13q-21 -3 -38 -3q-34 0 -51 22l11 -73q4 -28 4 -56v-88q0 -23 -23 -23h-58q-22 0 -22 23v676q0 23 23 23z" />
<glyph unicode="&#xb6;" horiz-adv-x="843" d="M158 794h625q22 0 22 -23v-40q0 -23 -22 -23h-117v-902q0 -23 -23 -23h-58q-22 0 -22 23v902h-125v-902q0 -23 -23 -23h-58q-23 0 -23 23v641h-179q-46 0 -76.5 30t-30.5 78v128q0 51 30.5 81t79.5 30zM334 708h-136q-23 0 -37.5 -15t-14.5 -38v-69q0 -22 13 -37.5 t36 -15.5h139v175z" />
<glyph unicode="&#xb7;" horiz-adv-x="209" d="M69 406h71q9 0 15 -6t6 -15v-70q0 -8 -6 -14.5t-15 -6.5h-71q-9 0 -15 6.5t-6 14.5v70q0 9 6 15t15 6z" />
<glyph unicode="&#xb8;" horiz-adv-x="279" d="M74 -98l30 98h55l-20 -68h40q22 0 35 -13.5t13 -34.5v-31q0 -21 -13.5 -34.5t-33.5 -13.5h-114q-13 0 -13 12v21q0 13 11 13h86q19 0 19 15v7q0 14 -21 14h-62q-6 0 -10 4.5t-2 10.5z" />
<glyph unicode="&#xb9;" horiz-adv-x="308" d="M187 722h48q13 0 13 -13v-273q0 -12 -13 -12h-48q-13 0 -13 12v173h-100q-14 0 -14 13v32q0 14 13 14h101v41q0 13 13 13z" />
<glyph unicode="&#xba;" horiz-adv-x="366" d="M58 499v160q0 29 17 46t45 17h127q28 0 45 -17t17 -46v-160q0 -29 -17.5 -46t-44.5 -17h-127q-28 0 -45 17t-17 46zM123 644v-130q0 -25 24 -25h73q24 0 24 25v130q0 24 -24 24h-73q-10 0 -17 -6.5t-7 -17.5z" />
<glyph unicode="&#xbb;" horiz-adv-x="576" d="M58 550l24 29q10 12 19 12q7 0 13 -6l203 -181q9 -8 9 -19v-49q0 -8 -10 -17l-202 -180q-6 -4 -12 -4q-10 0 -20 10l-24 29q-4 6 -4 11q0 10 11 21l174 157l-174 156q-12 10 -12 19q0 6 5 12zM267 550l24 29q10 12 19 12q6 0 12 -6l203 -181q10 -7 10 -19v-49 q0 -8 -11 -17l-202 -180q-6 -5 -12 -5q-10 0 -19 12l-23 28q-5 6 -5 12q0 9 11 20l174 157l-174 156q-13 10 -13 19q0 6 6 12z" />
<glyph unicode="&#xbc;" horiz-adv-x="658" d="M529 722h51q10 0 15 -6t-2 -17l-433 -677q-16 -22 -31 -22h-48q-11 0 -16.5 7t0.5 16l433 676q17 23 31 23zM466 298h80q13 0 13 -13v-169h28q13 0 13 -12v-34q0 -13 -12 -13h-29v-45q0 -12 -13 -12h-34q-14 0 -14 13v44h-144q-13 0 -13 14v31q0 4 2 10l111 176 q4 10 12 10zM185 722h48q13 0 13 -13v-273q0 -12 -13 -12h-48q-13 0 -13 12v173h-101q-13 0 -13 13v32q0 14 13 14h101v41q0 13 13 13zM498 116v136l-90 -136h90z" />
<glyph unicode="&#xbd;" horiz-adv-x="658" d="M529 722h51q10 0 15 -6t-2 -17l-433 -677q-16 -22 -31 -22h-48q-11 0 -16.5 7t0.5 16l433 676q17 23 31 23zM391 298h148q28 0 44.5 -17t16.5 -45v-33q0 -29 -21 -47l-137 -98h145q12 0 12 -13v-32q0 -13 -12 -13h-209q-13 0 -13 13v46q0 13 7 19l146 107q8 8 8 20v9 q0 25 -29 25h-106q-13 0 -13 12v34q0 13 13 13zM185 722h48q13 0 13 -13v-273q0 -12 -13 -12h-48q-13 0 -13 12v173h-101q-13 0 -13 13v33q0 13 13 13h101v41q0 13 13 13z" />
<glyph unicode="&#xbe;" horiz-adv-x="658" d="M529 722h51q10 0 15 -6t-2 -17l-433 -677q-16 -22 -31 -22h-48q-11 0 -16.5 7t0.5 16l433 676q17 23 31 23zM467 298h80q12 0 12 -13v-169h28q13 0 13 -12v-34q0 -13 -13 -13h-28v-44q0 -13 -13 -13h-33q-15 0 -15 13v44h-144q-13 0 -13 13v32q0 1 4 13l109 173 q6 10 13 10zM71 722h148q27 0 43.5 -16t16.5 -44v-17q0 -52 -44 -70q44 -18 44 -71v-20q0 -28 -16.5 -44t-42.5 -16h-149q-13 0 -13 12v34q0 13 13 13h103q35 0 35 26v9q0 29 -36 29h-83q-12 0 -12 13v28q0 14 13 14h82q36 0 36 28v7q0 26 -35 26h-103q-13 0 -13 12v34 q0 13 13 13zM498 116v136l-90 -136h90z" />
<glyph unicode="&#xbf;" horiz-adv-x="551" d="M460 -217h-246q-64 0 -105 41t-41 106v66q0 49 23 85t65 50l38 15q49 18 49 76v42q0 22 23 22h58q23 0 23 -22v-52q0 -50 -23 -85t-65 -50l-38 -15q-50 -20 -50 -78v-33q0 -39 23.5 -60.5t63.5 -21.5h203q23 0 23 -23v-40q0 -23 -24 -23zM330 397h-70q-23 0 -23 23v62 q0 23 23 23h70q23 0 23 -23v-62q0 -23 -23 -23z" />
<glyph unicode="&#xc0;" horiz-adv-x="634" d="M259 722h115q16 0 22 -17l200 -679q1 -3 1 -6q0 -7 -5 -12q-5 -8 -16 -8h-64q-18 0 -21 17l-39 130q-4 10 -14 10h-250q-10 0 -13 -10l-39 -130q-3 -17 -21 -17h-54q-12 0 -18.5 7.5t-4.5 17.5l200 680q6 17 21 17zM428 244l-114 388l-115 -388h229zM165 825l13 41 q3 10 12 10q5 0 10 -2l186 -67q12 -4 12 -12q0 -3 -1 -6l-6 -20q-4 -10 -12 -10q-3 0 -7 1l-196 44q-6 2 -10 8q-2 5 -2 9q0 2 1 4z" />
<glyph unicode="&#xc1;" horiz-adv-x="634" d="M259 722h115q16 0 22 -17l200 -679q1 -3 1 -6q0 -7 -5 -12q-5 -8 -16 -8h-64q-18 0 -21 17l-39 130q-4 10 -14 10h-250q-10 0 -13 -10l-39 -130q-3 -17 -21 -17h-54q-12 0 -18.5 7.5t-4.5 17.5l200 680q6 17 21 17zM428 244l-114 388l-115 -388h229zM250 807l187 67 q5 2 9 2q8 0 12 -10l13 -41q1 -3 1 -6q0 -10 -13 -15l-194 -44q-4 -1 -7 -1q-8 0 -12 10l-7 20q-2 13 11 18z" />
<glyph unicode="&#xc2;" horiz-adv-x="634" d="M259 722h115q16 0 22 -17l200 -679q1 -3 1 -6q0 -7 -5 -12q-5 -8 -16 -8h-64q-18 0 -21 17l-39 130q-4 10 -14 10h-250q-10 0 -13 -10l-39 -130q-3 -17 -21 -17h-54q-12 0 -18.5 7.5t-4.5 17.5l200 680q6 17 21 17zM428 244l-114 388l-115 -388h229zM162 762l-14 24 q-3 5 -3 8q0 6 7 10l125 68q8 7 21 7h31q5 0 21 -7l125 -68q7 -4 7 -10q0 -3 -3 -8l-14 -24q-2 -4 -7 -4q-4 0 -11 3l-134 57l-132 -57q-7 -3 -12 -3t-7 4z" />
<glyph unicode="&#xc3;" horiz-adv-x="634" d="M259 722h115q16 0 22 -17l200 -679q1 -3 1 -6q0 -7 -5 -12q-5 -8 -16 -8h-64q-18 0 -21 17l-39 130q-4 10 -14 10h-250q-10 0 -13 -10l-39 -130q-3 -17 -21 -17h-54q-12 0 -18.5 7.5t-4.5 17.5l200 680q6 17 21 17zM428 244l-114 388l-115 -388h229zM148 777l32 42 q23 29 65 31h7q37 0 64 -16l56 -23q12 -5 21 -5q10 0 16 7l14 18q9 12 18 12h48q12 0 12 -6q0 -3 -4 -8l-32 -43q-22 -30 -64 -30q-31 0 -72 16l-56 22q-13 6 -22 6q-10 0 -16 -7l-12 -20q-11 -11 -18 -11h-47q-9 0 -12 4q-1 2 -1 3q0 4 3 8z" />
<glyph unicode="&#xc4;" horiz-adv-x="634" d="M259 722h115q16 0 22 -17l200 -679q1 -3 1 -6q0 -7 -5 -12q-5 -8 -16 -8h-64q-18 0 -21 17l-39 130q-4 10 -14 10h-250q-10 0 -13 -10l-39 -130q-3 -17 -21 -17h-54q-12 0 -18.5 7.5t-4.5 17.5l200 680q6 17 21 17zM428 244l-114 388l-115 -388h229zM376 785v52 q0 20 20 20h60q20 0 20 -20v-52q0 -20 -20 -20h-60q-20 0 -20 20zM150 785v52q0 20 21 20h60q19 0 19 -20v-52q0 -20 -19 -20h-60q-21 0 -21 20z" />
<glyph unicode="&#xc5;" horiz-adv-x="634" d="M259 722h115q16 0 22 -17l200 -679q1 -3 1 -6q0 -7 -5 -12q-5 -8 -16 -8h-64q-18 0 -21 17l-39 130q-4 10 -14 10h-250q-10 0 -13 -10l-39 -130q-3 -17 -21 -17h-54q-12 0 -18.5 7.5t-4.5 17.5l200 680q6 17 21 17zM428 244l-114 388l-115 -388h229zM314 910 q35 0 58.5 -23.5t23.5 -57.5q0 -35 -23.5 -59t-58.5 -24q-34 0 -58 24t-24 59q0 34 24 57.5t58 23.5zM314 869q-17 0 -28.5 -11.5t-11.5 -28.5t11.5 -29t28.5 -12t28.5 12t11.5 29t-11.5 28.5t-28.5 11.5z" />
<glyph unicode="&#xc6;" horiz-adv-x="919" d="M437 722h422q23 0 23 -24v-39q0 -23 -23 -23h-275q-14 0 -14 -14v-213h241q23 0 23 -23v-41q0 -23 -23 -23h-241v-223q0 -13 13 -13h276q23 0 23 -23v-40q0 -23 -23 -23h-375q-18 0 -18 17v140h-261q-9 0 -14 -11l-79 -129q-8 -17 -24 -17h-59q-11 0 -15 8q-3 3 -3 7 q0 5 3 10l399 680q8 17 24 17zM466 244v380l-225 -380h225z" />
<glyph unicode="&#xc7;" horiz-adv-x="520" d="M256 -98l30 98h-57q-81 0 -126 45.5t-45 124.5v382q0 80 45 125t127 45h229q24 0 24 -24v-39q0 -23 -25 -23h-188q-109 0 -109 -108v-334q0 -108 108 -108h190q24 0 24 -23v-39q0 -24 -25 -24h-117l-20 -68h40q22 0 35 -13.5t13 -34.5v-31q0 -21 -13.5 -34.5t-33.5 -13.5 h-114q-13 0 -13 12v21q0 13 11 13h86q19 0 19 15v7q0 14 -21 14h-62q-6 0 -10 4.5t-2 10.5z" />
<glyph unicode="&#xc8;" horiz-adv-x="521" d="M89 722h372q23 0 23 -22v-43q0 -21 -23 -21h-276q-14 0 -14 -14v-213h241q24 0 24 -24v-40q0 -23 -25 -23h-240v-223q0 -13 14 -13h276q23 0 23 -21v-44q0 -21 -23 -21h-371q-10 0 -16 6t-6 15v680q0 8 6 14.5t15 6.5zM141 825l13 41q3 10 12 10q5 0 10 -2l186 -67 q12 -4 12 -12q0 -3 -1 -6l-6 -20q-4 -10 -12 -10q-3 0 -7 1l-196 44q-6 2 -10 8q-2 5 -2 9q0 2 1 4z" />
<glyph unicode="&#xc9;" horiz-adv-x="521" d="M89 722h372q23 0 23 -22v-43q0 -21 -23 -21h-276q-14 0 -14 -14v-213h241q24 0 24 -24v-40q0 -23 -25 -23h-240v-223q0 -13 14 -13h276q23 0 23 -21v-44q0 -21 -23 -21h-371q-10 0 -16 6t-6 15v680q0 8 6 14.5t15 6.5zM191 807l187 67q5 2 9 2q8 0 12 -10l13 -41 q1 -3 1 -6q0 -10 -13 -15l-194 -44q-4 -1 -7 -1q-8 0 -12 10l-7 20q-2 13 11 18z" />
<glyph unicode="&#xca;" horiz-adv-x="521" d="M89 722h372q23 0 23 -22v-43q0 -21 -23 -21h-276q-14 0 -14 -14v-213h241q24 0 24 -24v-40q0 -23 -25 -23h-240v-223q0 -13 14 -13h276q23 0 23 -21v-44q0 -21 -23 -21h-371q-10 0 -16 6t-6 15v680q0 8 6 14.5t15 6.5zM115 762l-14 24q-3 5 -3 8q0 6 7 10l125 68 q8 7 21 7h31q5 0 21 -7l125 -68q7 -4 7 -10q0 -3 -3 -8l-14 -24q-2 -4 -7 -4q-4 0 -11 3l-134 57l-132 -57q-7 -3 -12 -3t-7 4z" />
<glyph unicode="&#xcb;" horiz-adv-x="521" d="M89 722h372q23 0 23 -22v-43q0 -21 -23 -21h-276q-14 0 -14 -14v-213h241q24 0 24 -24v-40q0 -23 -25 -23h-240v-223q0 -13 14 -13h276q23 0 23 -21v-44q0 -21 -23 -21h-371q-10 0 -16 6t-6 15v680q0 8 6 14.5t15 6.5zM336 785v52q0 20 20 20h60q20 0 20 -20v-52 q0 -20 -20 -20h-60q-20 0 -20 20zM110 785v52q0 20 21 20h60q19 0 19 -20v-52q0 -20 -19 -20h-60q-21 0 -21 20z" />
<glyph unicode="&#xcc;" horiz-adv-x="239" d="M68 23v676q0 23 23 23h57q23 0 23 -23v-676q0 -23 -23 -23h-57q-23 0 -23 23zM-58 825l13 41q3 10 12 10q5 0 10 -2l186 -67q12 -4 12 -12q0 -3 -1 -6l-6 -20q-4 -10 -12 -10q-3 0 -7 1l-196 44q-6 2 -9 8q-3 5 -3 9q0 2 1 4z" />
<glyph unicode="&#xcd;" horiz-adv-x="239" d="M68 23v676q0 23 23 23h57q23 0 23 -23v-676q0 -23 -23 -23h-57q-23 0 -23 23zM67 807l187 67q5 2 9 2q8 0 12 -10l13 -41q1 -3 1 -6q0 -10 -13 -15l-194 -44q-4 -1 -7 -1q-8 0 -12 10l-7 20q-2 13 11 18z" />
<glyph unicode="&#xce;" horiz-adv-x="239" d="M68 23v676q0 23 23 23h57q23 0 23 -23v-676q0 -23 -23 -23h-57q-23 0 -23 23zM-32 762l-14 24q-3 5 -3 8q0 6 7 10l125 68q8 7 21 7h31q5 0 21 -7l125 -68q7 -4 7 -10q0 -3 -3 -8l-14 -24q-2 -4 -7 -4q-4 0 -11 3l-134 57l-132 -57q-7 -3 -12 -3t-7 4z" />
<glyph unicode="&#xcf;" horiz-adv-x="239" d="M68 23v676q0 23 23 23h57q23 0 23 -23v-676q0 -23 -23 -23h-57q-23 0 -23 23zM182 785v52q0 20 20 20h60q20 0 20 -20v-52q0 -20 -20 -20h-60q-20 0 -20 20zM-44 785v52q0 20 21 20h60q19 0 19 -20v-52q0 -20 -19 -20h-60q-21 0 -21 20z" />
<glyph unicode="&#xd0;" horiz-adv-x="615" d="M10 350v23q0 23 23 23h35v302q0 24 24 24h292q82 0 127.5 -45t45.5 -125v-382q0 -79 -45 -124.5t-126 -45.5h-294q-24 0 -24 24v303h-35q-23 0 -23 23zM344 636h-160q-13 0 -13 -14v-226h125q23 0 23 -23v-23q0 -23 -23 -23h-125v-227q0 -14 13 -14h161q108 0 108 108 v334q0 108 -109 108z" />
<glyph unicode="&#xd1;" horiz-adv-x="640" d="M426 16l-260 583v-576q0 -23 -23 -23h-52q-23 0 -23 23v676q0 23 23 23h100q20 0 24 -16l260 -584v577q0 23 23 23h52q23 0 23 -23v-676q0 -23 -23 -23h-101q-19 0 -23 16zM163 777l32 42q23 29 65 31h7q37 0 64 -16l56 -23q12 -5 21 -5q10 0 16 7l14 18q9 12 18 12h48 q12 0 12 -6q0 -3 -4 -8l-32 -43q-22 -30 -64 -30q-31 0 -72 16l-56 22q-13 6 -22 6q-10 0 -16 -7l-12 -20q-11 -11 -18 -11h-47q-9 0 -12 4q-1 2 -1 3q0 4 3 8z" />
<glyph unicode="&#xd2;" horiz-adv-x="605" d="M547 552v-382q0 -79 -45 -124.5t-126 -45.5h-147q-81 0 -126 45t-45 126v381q0 81 45 125.5t128 44.5h143q83 0 128 -44.5t45 -125.5zM443 193v336q0 107 -108 107h-65q-109 0 -109 -107v-336q0 -107 107 -107h68q107 0 107 107zM184 825l13 41q3 10 12 10q5 0 10 -2 l186 -67q12 -4 12 -12q0 -3 -1 -6l-6 -20q-4 -10 -12 -10q-3 0 -7 1l-196 44q-6 2 -9 8q-3 5 -3 9q0 2 1 4z" />
<glyph unicode="&#xd3;" horiz-adv-x="605" d="M547 552v-382q0 -79 -45 -124.5t-126 -45.5h-147q-81 0 -126 45t-45 126v381q0 81 45 125.5t128 44.5h143q83 0 128 -44.5t45 -125.5zM443 193v336q0 107 -108 107h-65q-109 0 -109 -107v-336q0 -107 107 -107h68q107 0 107 107zM223 807l187 67q5 2 9 2q8 0 12 -10 l13 -41q1 -3 1 -6q0 -10 -13 -15l-194 -44q-4 -1 -7 -1q-8 0 -12 10l-7 20q-2 13 11 18z" />
<glyph unicode="&#xd4;" horiz-adv-x="605" d="M547 552v-382q0 -79 -45 -124.5t-126 -45.5h-147q-81 0 -126 45t-45 126v381q0 81 45 125.5t128 44.5h143q83 0 128 -44.5t45 -125.5zM443 193v336q0 107 -108 107h-65q-109 0 -109 -107v-336q0 -107 107 -107h68q107 0 107 107zM151 762l-14 24q-3 5 -3 8q0 6 7 10 l125 68q8 7 21 7h31q5 0 21 -7l125 -68q7 -4 7 -10q0 -3 -3 -8l-14 -24q-2 -4 -7 -4q-4 0 -11 3l-134 57l-132 -57q-7 -3 -12 -3t-7 4z" />
<glyph unicode="&#xd5;" horiz-adv-x="605" d="M547 552v-382q0 -79 -45 -124.5t-126 -45.5h-147q-81 0 -126 45t-45 126v381q0 81 45 125.5t128 44.5h143q83 0 128 -44.5t45 -125.5zM443 193v336q0 107 -108 107h-65q-109 0 -109 -107v-336q0 -107 107 -107h68q107 0 107 107zM134 777l32 42q23 29 65 31h7 q37 0 64 -16l56 -23q12 -5 21 -5q10 0 16 7l14 18q9 12 18 12h48q12 0 12 -6q0 -3 -4 -8l-32 -43q-22 -30 -64 -30q-31 0 -72 16l-56 22q-13 6 -22 6q-10 0 -16 -7l-12 -20q-11 -11 -18 -11h-47q-9 0 -12 4q-1 2 -1 3q0 4 3 8z" />
<glyph unicode="&#xd6;" horiz-adv-x="605" d="M547 552v-382q0 -79 -45 -124.5t-126 -45.5h-147q-81 0 -126 45t-45 126v381q0 81 45 125.5t128 44.5h143q83 0 128 -44.5t45 -125.5zM443 193v336q0 107 -108 107h-65q-109 0 -109 -107v-336q0 -107 107 -107h68q107 0 107 107zM365 785v52q0 20 20 20h60q20 0 20 -20 v-52q0 -20 -20 -20h-60q-20 0 -20 20zM139 785v52q0 20 21 20h60q19 0 19 -20v-52q0 -20 -19 -20h-60q-21 0 -21 20z" />
<glyph unicode="&#xd7;" horiz-adv-x="564" d="M102 404l29 29q8 8 16 8l16 -8l118 -118l120 119q7 8 15 8t17 -9l29 -29q8 -8 8 -17q0 -7 -7 -15l-119 -120l118 -118q8 -8 8 -16t-8 -16l-29 -29q-8 -8 -16 -8l-16 8l-118 118l-119 -118q-8 -9 -16 -9t-17 9l-29 29q-8 8 -8 16t8 17l118 119l-118 118q-8 8 -8 16t8 16z " />
<glyph unicode="&#xd8;" horiz-adv-x="605" d="M424 866h47q12 0 16.5 -6t-0.5 -17l-39 -135q49 -17 74 -58.5t25 -97.5v-382q0 -79 -45 -124.5t-126 -45.5h-137l-36 -126q-7 -18 -23 -18h-49q-17 0 -17 13q0 4 2 10l40 134q-98 35 -98 158v381q0 81 45 125.5t128 44.5h133l38 127q5 17 22 17zM443 193v335 q0 108 -108 108h-65q-109 0 -109 -107v-336q0 -107 107 -107h69q106 0 106 107z" />
<glyph unicode="&#xd9;" horiz-adv-x="625" d="M89 722h61q9 0 15 -6t6 -15v-508q0 -107 107 -107h68q107 0 107 107v508q0 9 6.5 15t14.5 6h61q9 0 15.5 -6t6.5 -15v-531q0 -79 -45 -124.5t-126 -45.5h-147q-81 0 -126 45t-45 126v530q0 9 6 15t15 6zM174 825l13 41q3 10 12 10q5 0 10 -2l186 -67q12 -4 12 -12 q0 -3 -1 -6l-6 -20q-4 -10 -12 -10q-3 0 -7 1l-196 44q-6 2 -9 8q-3 5 -3 9q0 2 1 4z" />
<glyph unicode="&#xda;" horiz-adv-x="625" d="M89 722h61q9 0 15 -6t6 -15v-508q0 -107 107 -107h68q107 0 107 107v508q0 9 6.5 15t14.5 6h61q9 0 15.5 -6t6.5 -15v-531q0 -79 -45 -124.5t-126 -45.5h-147q-81 0 -126 45t-45 126v530q0 9 6 15t15 6zM242 807l187 67q5 2 9 2q8 0 12 -10l13 -41q1 -3 1 -6 q0 -10 -13 -15l-194 -44q-4 -1 -7 -1q-8 0 -12 10l-7 20q-2 13 11 18z" />
<glyph unicode="&#xdb;" horiz-adv-x="625" d="M89 722h61q9 0 15 -6t6 -15v-508q0 -107 107 -107h68q107 0 107 107v508q0 9 6.5 15t14.5 6h61q9 0 15.5 -6t6.5 -15v-531q0 -79 -45 -124.5t-126 -45.5h-147q-81 0 -126 45t-45 126v530q0 9 6 15t15 6zM161 762l-14 24q-3 5 -3 8q0 6 7 10l125 68q8 7 21 7h31q5 0 21 -7 l125 -68q7 -4 7 -10q0 -3 -3 -8l-14 -24q-2 -4 -7 -4q-4 0 -11 3l-134 57l-132 -57q-7 -3 -12 -3t-7 4z" />
<glyph unicode="&#xdc;" horiz-adv-x="625" d="M89 722h61q9 0 15 -6t6 -15v-508q0 -107 107 -107h68q107 0 107 107v508q0 9 6.5 15t14.5 6h61q9 0 15.5 -6t6.5 -15v-531q0 -79 -45 -124.5t-126 -45.5h-147q-81 0 -126 45t-45 126v530q0 9 6 15t15 6zM375 785v52q0 20 20 20h60q20 0 20 -20v-52q0 -20 -20 -20h-60 q-20 0 -20 20zM149 785v52q0 20 21 20h60q19 0 19 -20v-52q0 -20 -19 -20h-60q-21 0 -21 20z" />
<glyph unicode="&#xdd;" horiz-adv-x="590" d="M130 712l166 -300l166 300q7 10 18 10h70q10 0 18 -10q4 -6 4 -12q0 -5 -3 -10l-222 -389v-278q0 -23 -23 -23h-58q-23 0 -23 23v278l-221 389q-3 4 -3 9t3 11q5 12 18 12h73q13 0 17 -10zM246 807l187 67q5 2 9 2q8 0 12 -10l13 -41q1 -3 1 -6q0 -10 -13 -15l-194 -44 q-4 -1 -7 -1q-8 0 -12 10l-7 20q-2 13 11 18z" />
<glyph unicode="&#xde;" horiz-adv-x="560" d="M68 23v676q0 23 23 23h57q23 0 23 -23v-129h179q82 0 127 -45t45 -125v-69q0 -79 -45.5 -125t-125.5 -46h-180v-137q0 -23 -23 -23h-57q-23 0 -23 23zM171 247h140q107 0 107 106v26q0 105 -108 105h-126q-5 0 -9 -4.5t-4 -9.5v-223z" />
<glyph unicode="&#xdf;" horiz-adv-x="649" d="M232 645v-622q0 -23 -25 -23h-56q-23 0 -23 23v396h-57q-23 0 -23 23v40q0 23 23 23h57v172q0 54 31.5 85.5t82.5 31.5h221q56 0 90 -34.5t34 -89.5v-57q0 -55 -26 -94t-63 -57q38 -18 63.5 -56.5t25.5 -93.5v-188q0 -55 -34 -89.5t-90 -34.5h-144q-23 0 -23 23v41 q0 22 23 22h88q35 0 56 21.5t21 56.5v162q0 43 -25.5 68t-68.5 25h-71q-23 0 -23 23v40q0 23 23 23h71q43 0 68.5 25.5t25.5 67.5v36q0 35 -20.5 54.5t-55.5 19.5h-113q-29 0 -46 -16.5t-17 -46.5z" />
<glyph unicode="&#xe0;" horiz-adv-x="552" d="M116 505h254q51 0 82.5 -31.5t31.5 -83.5v-366q0 -24 -23 -24h-67l-13 17l-153 -16q-31 -4 -51 -4q-49 0 -79 30.5t-30 79.5v90q0 49 30 79.5t79 30.5q21 0 46 -4l158 -16v73q0 59 -63 59h-202q-23 0 -23 23v40q0 23 23 23zM381 232h-165q-23 0 -37.5 -14t-14.5 -38v-52 q0 -24 14.5 -38.5t37.5 -14.5h165v157zM179 682l32 33q5 5 11 5t13 -6l126 -128q8 -8 8 -13t-6 -9l-21 -18q-10 -3 -10.5 -3t-9.5 5l-142 112q-6 4 -6 11q0 6 5 11z" />
<glyph unicode="&#xe1;" horiz-adv-x="552" d="M116 505h254q51 0 82.5 -31.5t31.5 -83.5v-366q0 -24 -23 -24h-67l-13 17l-153 -16q-31 -4 -51 -4q-49 0 -79 30.5t-30 79.5v90q0 49 30 79.5t79 30.5q21 0 46 -4l158 -16v73q0 59 -63 59h-202q-23 0 -23 23v40q0 23 23 23zM381 232h-165q-23 0 -37.5 -14t-14.5 -38v-52 q0 -24 14.5 -38.5t37.5 -14.5h165v157zM349 715l32 -33q6 -6 6 -11q0 -6 -7 -11l-142 -112q-8 -5 -13 -5q-2 0 -3 1q-2 0 -4 2l-21 18q-6 4 -6 9t8 13l126 128q7 6 13 6t11 -5z" />
<glyph unicode="&#xe2;" horiz-adv-x="552" d="M116 505h254q51 0 82.5 -31.5t31.5 -83.5v-366q0 -24 -23 -24h-67l-13 17l-153 -16q-31 -4 -51 -4q-49 0 -79 30.5t-30 79.5v90q0 49 30 79.5t79 30.5q21 0 46 -4l158 -16v73q0 59 -63 59h-202q-23 0 -23 23v40q0 23 23 23zM381 232h-165q-23 0 -37.5 -14t-14.5 -38v-52 q0 -24 14.5 -38.5t37.5 -14.5h165v157zM249 722h43q11 0 18 -10l102 -112q4 -4 4 -11q0 -6 -3 -9l-21 -17q-2 -2 -6 -2q-5 0 -13 5l-102 89l-102 -89q-8 -6 -13 -6q-4 0 -7 3l-21 17q-3 3 -3 7q0 6 5 13l101 112q8 10 18 10z" />
<glyph unicode="&#xe3;" horiz-adv-x="552" d="M116 505h254q51 0 82.5 -31.5t31.5 -83.5v-366q0 -24 -23 -24h-67l-13 17l-153 -16q-31 -4 -51 -4q-49 0 -79 30.5t-30 79.5v90q0 49 30 79.5t79 30.5q21 0 46 -4l158 -16v73q0 59 -63 59h-202q-23 0 -23 23v40q0 23 23 23zM381 232h-165q-23 0 -37.5 -14t-14.5 -38v-52 q0 -24 14.5 -38.5t37.5 -14.5h165v157zM120 619l32 50q22 33 64 33q38 0 73 -20l55 -28q12 -6 20 -6q11 0 17 8l13 19q12 12 18 12h49q12 0 12 -6q0 -3 -4 -9l-32 -48q-15 -21 -40 -28q-15 -4 -30 -4q-10 0 -19 2q-25 4 -48 15l-55 28q-12 6 -21 6q-10 0 -17 -7l-12 -19 q-11 -12 -18 -12h-47q-8 0 -11 4q-1 2 -1 4q0 3 2 6z" />
<glyph unicode="&#xe4;" horiz-adv-x="552" d="M116 505h254q51 0 82.5 -31.5t31.5 -83.5v-366q0 -24 -23 -24h-67l-13 17l-153 -16q-31 -4 -51 -4q-49 0 -79 30.5t-30 79.5v90q0 49 30 79.5t79 30.5q21 0 46 -4l158 -16v73q0 59 -63 59h-202q-23 0 -23 23v40q0 23 23 23zM381 232h-165q-23 0 -37.5 -14t-14.5 -38v-52 q0 -24 14.5 -38.5t37.5 -14.5h165v157zM336 624v53q0 19 20 19h60q20 0 20 -19v-53q0 -20 -20 -20h-60q-20 0 -20 20zM110 624v53q0 19 21 19h60q19 0 19 -19v-53q0 -20 -19 -20h-60q-21 0 -21 20z" />
<glyph unicode="&#xe5;" horiz-adv-x="552" d="M116 505h254q51 0 82.5 -31.5t31.5 -83.5v-366q0 -24 -23 -24h-67l-13 17l-153 -16q-31 -4 -51 -4q-49 0 -79 30.5t-30 79.5v90q0 49 30 79.5t79 30.5q21 0 46 -4l158 -16v73q0 59 -63 59h-202q-23 0 -23 23v40q0 23 23 23zM381 232h-165q-23 0 -37.5 -14t-14.5 -38v-52 q0 -24 14.5 -38.5t37.5 -14.5h165v157zM278 733q35 0 58.5 -24t23.5 -58t-23.5 -58.5t-58.5 -24.5q-34 0 -58 24.5t-24 58.5t24 58t58 24zM278 691q-17 0 -28.5 -11.5t-11.5 -28.5t11.5 -29t28.5 -12t28.5 12t11.5 29t-11.5 28.5t-28.5 11.5z" />
<glyph unicode="&#xe6;" horiz-adv-x="855" d="M116 505h236q54 0 85 -37q30 37 83 37h167q49 0 79.5 -30t30.5 -81v-85q0 -47 -30.5 -77.5t-76.5 -30.5h-206v-55q0 -60 65 -60h189q23 0 23 -23v-40q0 -23 -23 -23h-216q-55 0 -85 38q-28 -38 -87 -38h-173q-49 0 -79 30.5t-30 79.5v89q0 49 30 79t79 30q31 0 46 -3 l158 -17v75q0 27 -17.5 41.5t-45.5 14.5h-202q-23 0 -23 23v40q0 23 23 23zM650 424h-113q-23 0 -38 -15.5t-15 -37.5v-117l169 14q48 5 48 50v54q0 23 -14 37.5t-37 14.5zM381 235h-162q-55 0 -55 -55v-50q0 -53 55 -53h108q54 0 54 56v102z" />
<glyph unicode="&#xe7;" horiz-adv-x="453" d="M214 -98l30 98h-63q-51 0 -82 31t-31 84v275q0 54 31 84.5t82 30.5h212q10 0 16 -6t6 -15v-44q0 -21 -22 -21h-160q-29 0 -45 -16.5t-16 -45.5v-209q0 -29 16 -45.5t45 -16.5h160q10 0 16 -6t6 -15v-44q0 -9 -6 -15t-16 -6h-94l-20 -68h40q22 0 35 -13.5t13 -34.5v-31 q0 -21 -13.5 -34.5t-33.5 -13.5h-114q-13 0 -13 12v21q0 13 11 13h86q19 0 19 15v7q0 14 -21 14h-62q-6 0 -10 4.5t-2 10.5z" />
<glyph unicode="&#xe8;" horiz-adv-x="542" d="M68 114v280q0 51 30.5 81t79.5 30h196q49 0 79.5 -30t30.5 -81v-85q0 -48 -30.5 -78t-76.5 -30h-206v-54q0 -28 17 -44.5t44 -16.5h194q23 0 23 -22v-41q0 -23 -23 -23h-245q-51 0 -82 31t-31 83zM171 371v-117l169 14q48 5 48 51v53q0 23 -14 37.5t-36 14.5h-114 q-24 0 -38.5 -14.5t-14.5 -38.5zM176 682l32 33q6 5 11 5l13 -6l126 -128q8 -8 8 -13t-6 -9l-21 -18q-10 -3 -10.5 -3t-9.5 5l-142 112q-6 4 -6 11q0 6 5 11z" />
<glyph unicode="&#xe9;" horiz-adv-x="542" d="M68 114v280q0 51 30.5 81t79.5 30h196q49 0 79.5 -30t30.5 -81v-85q0 -48 -30.5 -78t-76.5 -30h-206v-54q0 -28 17 -44.5t44 -16.5h194q23 0 23 -22v-41q0 -23 -23 -23h-245q-51 0 -82 31t-31 83zM171 371v-117l169 14q48 5 48 51v53q0 23 -14 37.5t-36 14.5h-114 q-24 0 -38.5 -14.5t-14.5 -38.5zM363 715l32 -33q6 -6 6 -11q0 -6 -7 -11l-142 -112q-8 -5 -13 -5q-2 0 -3 1q-2 0 -4 2l-21 18q-6 4 -6 9t8 13l126 128q7 6 13 6t11 -5z" />
<glyph unicode="&#xea;" horiz-adv-x="542" d="M68 114v280q0 51 30.5 81t79.5 30h196q49 0 79.5 -30t30.5 -81v-85q0 -48 -30.5 -78t-76.5 -30h-206v-54q0 -28 17 -44.5t44 -16.5h194q23 0 23 -22v-41q0 -23 -23 -23h-245q-51 0 -82 31t-31 83zM171 371v-117l169 14q48 5 48 51v53q0 23 -14 37.5t-36 14.5h-114 q-24 0 -38.5 -14.5t-14.5 -38.5zM262 722h43q11 0 18 -10l102 -112q4 -4 4 -11q0 -6 -3 -9l-21 -17q-2 -2 -6 -2q-5 0 -13 5l-102 89l-102 -89q-8 -6 -13 -6q-4 0 -7 3l-21 17q-3 3 -3 7q0 6 5 13l101 112q8 10 18 10z" />
<glyph unicode="&#xeb;" horiz-adv-x="542" d="M68 114v280q0 51 30.5 81t79.5 30h196q49 0 79.5 -30t30.5 -81v-85q0 -48 -30.5 -78t-76.5 -30h-206v-54q0 -28 17 -44.5t44 -16.5h194q23 0 23 -22v-41q0 -23 -23 -23h-245q-51 0 -82 31t-31 83zM171 371v-117l169 14q48 5 48 51v53q0 23 -14 37.5t-36 14.5h-114 q-24 0 -38.5 -14.5t-14.5 -38.5zM342 624v53q0 19 20 19h60q20 0 20 -19v-53q0 -20 -20 -20h-60q-20 0 -20 20zM116 624v53q0 19 21 19h60q19 0 19 -19v-53q0 -20 -19 -20h-60q-21 0 -21 20z" />
<glyph unicode="&#xec;" horiz-adv-x="239" d="M68 23v459q0 23 23 23h57q23 0 23 -23v-459q0 -23 -23 -23h-57q-23 0 -23 23zM-13 682l32 33q5 5 11 5t13 -6l126 -128q8 -8 8 -13t-6 -9l-21 -18q-10 -3 -10.5 -3t-9.5 5l-142 112q-6 4 -6 11q0 6 5 11z" />
<glyph unicode="&#xed;" horiz-adv-x="239" d="M68 23v459q0 23 23 23h57q23 0 23 -23v-459q0 -23 -23 -23h-57q-23 0 -23 23zM220 715l32 -33q6 -6 6 -11q0 -6 -7 -11l-142 -112q-8 -5 -13 -5q-2 0 -3 1q-2 0 -4 2l-21 18q-6 4 -6 9t8 13l126 128q7 6 13 6t11 -5z" />
<glyph unicode="&#xee;" horiz-adv-x="239" d="M68 23v459q0 23 23 23h57q23 0 23 -23v-459q0 -23 -23 -23h-57q-23 0 -23 23zM98 722h43q11 0 18 -10l102 -112q4 -4 4 -11q0 -6 -3 -9l-21 -17q-2 -2 -6 -2q-5 0 -13 5l-102 89l-102 -89q-8 -6 -13 -6q-4 0 -7 3l-21 17q-3 3 -3 7q0 6 5 13l101 112q8 10 18 10z" />
<glyph unicode="&#xef;" horiz-adv-x="239" d="M68 23v459q0 23 23 23h57q23 0 23 -23v-459q0 -23 -23 -23h-57q-23 0 -23 23zM179 624v53q0 19 20 19h60q20 0 20 -19v-53q0 -20 -20 -20h-60q-20 0 -20 20zM-47 624v53q0 19 21 19h60q19 0 19 -19v-53q0 -20 -19 -20h-60q-21 0 -21 20z" />
<glyph unicode="&#xf0;" d="M413 794h57q23 0 23 -23v-98h35q23 0 23 -23v-23q0 -23 -23 -23h-35v-580q0 -24 -23 -24h-67l-13 17l-162 -16q-9 0 -27.5 -2t-23.5 -2q-49 0 -79 30.5t-30 79.5v288q0 50 29.5 80t79.5 30q27 0 46 -3l167 -16v118h-125q-23 0 -23 23v23q0 23 23 23h125v98q0 23 23 23z M390 419h-165q-25 0 -39.5 -14.5t-14.5 -38.5v-229q0 -24 15 -38.5t41 -14.5h163v335z" />
<glyph unicode="&#xf1;" d="M68 23v459q0 23 22 23h68l13 -16l172 16q4 0 19.5 1.5t21.5 1.5q49 0 79 -30.5t30 -79.5v-375q0 -23 -23 -23h-57q-23 0 -23 23v345q0 24 -14.5 39t-39.5 15h-165v-399q0 -23 -23 -23h-57q-23 0 -23 23zM108 619l32 50q22 33 64 33q38 0 73 -20l55 -28q12 -6 20 -6 q11 0 17 8l13 19q12 12 18 12h49q12 0 12 -6q0 -3 -4 -9l-32 -48q-15 -21 -40 -28q-15 -4 -30 -4q-10 0 -19 2q-25 4 -48 15l-55 28q-12 6 -21 6q-10 0 -17 -7l-12 -19q-11 -12 -18 -12h-47q-8 0 -11 4q-1 2 -1 4q0 3 2 6z" />
<glyph unicode="&#xf2;" horiz-adv-x="580" d="M68 111v283q0 51 30.5 81t79.5 30h224q50 0 80 -30t30 -81v-283q0 -51 -30.5 -81t-79.5 -30h-224q-49 0 -79.5 30t-30.5 81zM171 361v-217q0 -26 16 -42t41 -16h122q26 0 42 16t16 42v217q0 26 -16 42t-42 16h-122q-25 0 -41 -16t-16 -42zM196 682l32 33q6 5 11 5l13 -6 l126 -128q8 -8 8 -13t-6 -9l-21 -18q-10 -3 -10.5 -3t-9.5 5l-142 112q-6 4 -6 11q0 6 5 11z" />
<glyph unicode="&#xf3;" horiz-adv-x="580" d="M68 111v283q0 51 30.5 81t79.5 30h224q50 0 80 -30t30 -81v-283q0 -51 -30.5 -81t-79.5 -30h-224q-49 0 -79.5 30t-30.5 81zM171 361v-217q0 -26 16 -42t41 -16h122q26 0 42 16t16 42v217q0 26 -16 42t-42 16h-122q-25 0 -41 -16t-16 -42zM375 715l32 -33q6 -6 6 -11 q0 -6 -7 -11l-142 -112q-8 -5 -13 -5q-2 0 -3 1q-2 0 -4 2l-21 18q-6 4 -6 9t8 13l126 128q7 6 13 6t11 -5z" />
<glyph unicode="&#xf4;" horiz-adv-x="580" d="M68 111v283q0 51 30.5 81t79.5 30h224q50 0 80 -30t30 -81v-283q0 -51 -30.5 -81t-79.5 -30h-224q-49 0 -79.5 30t-30.5 81zM171 361v-217q0 -26 16 -42t41 -16h122q26 0 42 16t16 42v217q0 26 -16 42t-42 16h-122q-25 0 -41 -16t-16 -42zM269 722h43q11 0 18 -10 l102 -112q4 -4 4 -11q0 -6 -3 -9l-21 -17q-2 -2 -6 -2q-5 0 -13 5l-102 89l-102 -89q-8 -6 -13 -6q-4 0 -7 3l-21 17q-3 3 -3 7q0 6 5 13l101 112q8 10 18 10z" />
<glyph unicode="&#xf5;" horiz-adv-x="580" d="M68 111v283q0 51 30.5 81t79.5 30h224q50 0 80 -30t30 -81v-283q0 -51 -30.5 -81t-79.5 -30h-224q-49 0 -79.5 30t-30.5 81zM171 361v-217q0 -26 16 -42t41 -16h122q26 0 42 16t16 42v217q0 26 -16 42t-42 16h-122q-25 0 -41 -16t-16 -42zM91 619l32 50q22 33 64 33 q38 0 73 -20l55 -28q12 -6 20 -6q11 0 17 8l13 19q12 12 18 12h49q12 0 12 -6q0 -4 -4 -9l-32 -48q-15 -21 -40 -28q-15 -4 -30 -4q-10 0 -20 2q-24 4 -47 15l-55 28q-12 6 -21 6q-10 0 -17 -7l-12 -19q-10 -12 -18 -12h-47q-8 0 -11 4q-1 2 -1 4q0 3 2 6z" />
<glyph unicode="&#xf6;" horiz-adv-x="580" d="M68 111v283q0 51 30.5 81t79.5 30h224q50 0 80 -30t30 -81v-283q0 -51 -30.5 -81t-79.5 -30h-224q-49 0 -79.5 30t-30.5 81zM171 361v-217q0 -26 16 -42t41 -16h122q26 0 42 16t16 42v217q0 26 -16 42t-42 16h-122q-25 0 -41 -16t-16 -42zM349 624v53q0 19 20 19h60 q20 0 20 -19v-53q0 -20 -20 -20h-60q-20 0 -20 20zM123 624v53q0 19 21 19h60q19 0 19 -19v-53q0 -20 -19 -20h-60q-21 0 -21 20z" />
<glyph unicode="&#xf7;" horiz-adv-x="564" d="M69 308h422q23 0 23 -23v-42q0 -23 -23 -23h-423q-22 0 -22 23v42q0 23 23 23zM243 112h75q9 0 15.5 -6t6.5 -15v-69q0 -9 -6.5 -15.5t-15.5 -6.5h-75q-9 0 -15.5 6.5t-6.5 15.5v69q0 9 6.5 15t15.5 6zM243 527h75q9 0 15.5 -6t6.5 -15v-69q0 -9 -6.5 -15.5t-15.5 -6.5 h-75q-9 0 -15.5 6.5t-6.5 15.5v69q0 9 6.5 15t15.5 6z" />
<glyph unicode="&#xf8;" horiz-adv-x="580" d="M440 649h50q11 0 15 -6.5t-1 -16.5l-58 -129q66 -27 66 -105v-281q0 -51 -30.5 -81t-79.5 -30h-182l-57 -126q-11 -18 -23 -18h-49q-10 0 -14.5 6t0.5 17l58 129q-67 25 -67 103v283q0 51 30.5 81t79.5 30h183l58 128q10 16 21 16zM171 361v-217q0 -26 16 -42t42 -16h121 q26 0 42 16t16 42v217q0 26 -16 42t-42 16h-121q-26 0 -42 -16t-16 -42z" />
<glyph unicode="&#xf9;" d="M493 482v-459q0 -23 -22 -23h-68l-13 17l-164 -16q-5 0 -24 -2t-25 -2q-49 0 -79 30.5t-30 78.5v376q0 23 23 23h57q23 0 23 -23v-345q0 -25 14.5 -39.5t38.5 -14.5h166v399q0 23 23 23h57q23 0 23 -23zM171 682l32 33q5 5 11 5t13 -6l126 -128q8 -8 8 -13t-6 -9l-21 -18 q-10 -3 -10.5 -3t-9.5 5l-142 112q-6 4 -6 11q0 6 5 11z" />
<glyph unicode="&#xfa;" d="M493 482v-459q0 -23 -22 -23h-68l-13 17l-164 -16q-5 0 -24 -2t-25 -2q-49 0 -79 30.5t-30 78.5v376q0 23 23 23h57q23 0 23 -23v-345q0 -25 14.5 -39.5t38.5 -14.5h166v399q0 23 23 23h57q23 0 23 -23zM365 715l32 -33q6 -6 6 -11q0 -6 -7 -11l-142 -112q-8 -5 -13 -5 q-2 0 -3 1q-2 0 -4 2l-21 18q-6 4 -6 9t8 13l126 128q7 6 13 6t11 -5z" />
<glyph unicode="&#xfb;" d="M493 482v-459q0 -23 -22 -23h-68l-13 17l-164 -16q-5 0 -24 -2t-25 -2q-49 0 -79 30.5t-30 78.5v376q0 23 23 23h57q23 0 23 -23v-345q0 -25 14.5 -39.5t38.5 -14.5h166v399q0 23 23 23h57q23 0 23 -23zM259 722h43q11 0 18 -10l102 -112q4 -4 4 -11q0 -6 -3 -9l-21 -17 q-2 -2 -6 -2q-5 0 -13 5l-102 89l-102 -89q-8 -6 -13 -6q-4 0 -7 3l-21 17q-3 3 -3 7q0 6 5 13l101 112q8 10 18 10z" />
<glyph unicode="&#xfc;" d="M493 482v-459q0 -23 -22 -23h-68l-13 17l-164 -16q-5 0 -24 -2t-25 -2q-49 0 -79 30.5t-30 78.5v376q0 23 23 23h57q23 0 23 -23v-345q0 -25 14.5 -39.5t38.5 -14.5h166v399q0 23 23 23h57q23 0 23 -23zM345 624v53q0 19 20 19h60q20 0 20 -19v-53q0 -20 -20 -20h-60 q-20 0 -20 20zM119 624v53q0 19 21 19h60q19 0 19 -19v-53q0 -20 -19 -20h-60q-21 0 -21 20z" />
<glyph unicode="&#xfd;" horiz-adv-x="520" d="M59 505h61q16 0 20 -16l119 -413l120 412q6 17 21 17h61q10 0 17 -7q4 -4 4 -11q0 -3 -1 -7l-197 -678q-3 -19 -20 -19h-59q-10 0 -17 8t-5 19l57 190h-49q-17 0 -20 17l-133 462q-1 3 -1 6q0 7 5 13q5 7 17 7zM377 715l32 -33q6 -6 6 -11q0 -6 -7 -11l-142 -112 q-8 -5 -13 -5q-2 0 -3 1q-2 0 -4 2l-21 18q-6 4 -6 9t8 13l126 128q7 6 13 6t11 -5z" />
<glyph unicode="&#xfe;" d="M90 794h58q23 0 23 -23v-283l164 16q6 0 24 2t26 2q48 0 78 -30.5t30 -79.5v-288q0 -50 -29.5 -80t-79.5 -30q-12 0 -45 3l-168 16v-213q0 -23 -23 -23h-57q-23 0 -23 23v965q0 23 22 23zM171 86h165q25 0 39.5 15t14.5 39v228q0 25 -14.5 39.5t-39.5 14.5h-165v-336z " />
<glyph unicode="&#xff;" horiz-adv-x="520" d="M59 505h61q16 0 20 -16l119 -413l120 412q6 17 21 17h61q10 0 17 -7q4 -4 4 -11q0 -3 -1 -7l-197 -678q-3 -19 -20 -19h-59q-10 0 -17 8t-5 19l57 190h-49q-17 0 -20 17l-133 462q-1 3 -1 6q0 7 5 13q5 7 17 7zM321 624v53q0 19 20 19h60q20 0 20 -19v-53q0 -20 -20 -20 h-60q-20 0 -20 20zM95 624v53q0 19 21 19h60q19 0 19 -19v-53q0 -20 -19 -20h-60q-21 0 -21 20z" />
<glyph unicode="&#x152;" horiz-adv-x="896" d="M231 722h605q23 0 23 -24v-39q0 -23 -23 -23h-275q-14 0 -14 -14v-213h241q23 0 23 -23v-41q0 -23 -23 -23h-241v-223q0 -13 13 -13h276q23 0 23 -23v-40q0 -23 -23 -23h-607q-81 0 -126 45.5t-45 125.5v381q0 81 45 125.5t128 44.5zM443 636h-173q-109 0 -109 -107v-336 q0 -52 27.5 -79.5t79.5 -27.5h175v550z" />
<glyph unicode="&#x153;" horiz-adv-x="882" d="M178 505h203q48 0 84 -36q31 36 83 36h167q49 0 79 -30.5t30 -80.5v-85q0 -48 -30.5 -78t-76.5 -30h-205v-58q0 -27 16.5 -42t45.5 -15h192q23 0 23 -23v-40q0 -23 -23 -23h-216q-56 0 -85 37q-29 -37 -84 -37h-203q-49 0 -79.5 30t-30.5 81v283q0 51 30 81t80 30z M350 419h-122q-26 0 -41.5 -15.5t-15.5 -44.5v-212q0 -29 16 -45t41 -16h122q27 0 42.5 16t15.5 45v212q0 29 -15.5 44.5t-42.5 15.5zM677 424h-113q-24 0 -38 -14t-14 -39v-117l168 14q48 5 48 52v52q0 23 -14 37.5t-37 14.5z" />
<glyph unicode="&#x178;" horiz-adv-x="590" d="M130 712l166 -300l166 300q7 10 18 10h70q10 0 18 -10q4 -6 4 -12q0 -5 -3 -10l-222 -389v-278q0 -23 -23 -23h-58q-23 0 -23 23v278l-221 389q-3 4 -3 9t3 11q5 12 18 12h73q13 0 17 -10zM358 785v52q0 20 20 20h60q20 0 20 -20v-52q0 -20 -20 -20h-60q-20 0 -20 20z M132 785v52q0 20 21 20h60q19 0 19 -20v-52q0 -20 -19 -20h-60q-21 0 -21 20z" />
<glyph unicode="&#x2c6;" horiz-adv-x="407" d="M182 722h43q11 0 18 -10l102 -112q4 -4 4 -11q0 -6 -3 -9l-21 -17q-2 -2 -6 -2q-5 0 -13 5l-102 89l-102 -89q-8 -6 -13 -6q-4 0 -7 3l-21 17q-3 3 -3 7q0 6 5 13l101 112q8 10 18 10z" />
<glyph unicode="&#x2dc;" horiz-adv-x="459" d="M56 619l32 50q22 33 64 33q38 0 73 -20l55 -28q12 -6 20 -6q11 0 17 8l13 19q12 12 18 12h49q12 0 12 -6q0 -3 -4 -9l-32 -48q-15 -21 -40 -28q-15 -4 -30 -4q-10 0 -19 2q-25 4 -48 15l-55 28q-12 6 -21 6q-10 0 -17 -7l-12 -19q-11 -12 -18 -12h-47q-8 0 -11 4 q-1 2 -1 4q0 3 2 6z" />
<glyph unicode="&#x2000;" horiz-adv-x="455" />
<glyph unicode="&#x2001;" horiz-adv-x="910" />
<glyph unicode="&#x2002;" horiz-adv-x="455" />
<glyph unicode="&#x2003;" horiz-adv-x="910" />
<glyph unicode="&#x2004;" horiz-adv-x="303" />
<glyph unicode="&#x2005;" horiz-adv-x="227" />
<glyph unicode="&#x2006;" horiz-adv-x="151" />
<glyph unicode="&#x2007;" horiz-adv-x="151" />
<glyph unicode="&#x2008;" horiz-adv-x="113" />
<glyph unicode="&#x2009;" horiz-adv-x="182" />
<glyph unicode="&#x200a;" horiz-adv-x="50" />
<glyph unicode="&#x2010;" horiz-adv-x="313" d="M38 253v41q0 23 23 23h191q23 0 23 -23v-41q0 -23 -23 -23h-191q-23 0 -23 23z" />
<glyph unicode="&#x2011;" horiz-adv-x="313" d="M38 253v41q0 23 23 23h191q23 0 23 -23v-41q0 -23 -23 -23h-191q-23 0 -23 23z" />
<glyph unicode="&#x2013;" horiz-adv-x="535" d="M38 253v41q0 23 23 23h413q23 0 23 -23v-41q0 -23 -23 -23h-413q-23 0 -23 23z" />
<glyph unicode="&#x2014;" horiz-adv-x="703" d="M38 253v41q0 23 23 23h582q23 0 23 -23v-41q0 -23 -23 -23h-582q-23 0 -23 23z" />
<glyph unicode="&#x2018;" horiz-adv-x="223" d="M145 570h-76q-9 0 -15 6t-6 15v91l52 160q7 22 21 22h45l-52 -182h31q8 0 14.5 -6.5t6.5 -15.5v-69q0 -9 -6.5 -15t-14.5 -6z" />
<glyph unicode="&#x2019;" horiz-adv-x="223" d="M78 794h76q9 0 15.5 -6t6.5 -15v-91l-53 -161q-8 -21 -21 -21h-45l53 182h-32q-9 0 -15 6.5t-6 14.5v70q0 9 6 15t15 6z" />
<glyph unicode="&#x201a;" horiz-adv-x="223" d="M78 112h76q9 0 15.5 -6t6.5 -15v-91l-53 -160q-7 -22 -21 -22h-45l53 182h-32q-9 0 -15 6t-6 15v70q0 9 6 15t15 6z" />
<glyph unicode="&#x201c;" horiz-adv-x="390" d="M311 570h-76q-8 0 -14.5 6t-6.5 15v91l52 160q8 22 21 22h45l-52 -182h31q9 0 15.5 -6.5t6.5 -15.5v-69q0 -9 -6.5 -15t-15.5 -6zM145 570h-76q-8 0 -14.5 6t-6.5 15v91l52 160q8 22 21 22h45l-52 -182h31q8 0 14.5 -6.5t6.5 -15.5v-69q0 -9 -6.5 -15t-14.5 -6z" />
<glyph unicode="&#x201d;" horiz-adv-x="390" d="M78 794h76q9 0 15.5 -6t6.5 -15v-91l-53 -161q-7 -21 -21 -21h-45l53 182h-32q-8 0 -14.5 6.5t-6.5 14.5v70q0 9 6.5 15t14.5 6zM245 794h75q9 0 15.5 -6t6.5 -15v-91l-53 -161q-6 -21 -20 -21h-45l52 182h-31q-9 0 -15 6.5t-6 14.5v70q0 9 6 15t15 6z" />
<glyph unicode="&#x201e;" horiz-adv-x="389" d="M78 112h76q9 0 15.5 -6t6.5 -15v-91l-53 -160q-7 -22 -21 -22h-45l53 182h-32q-8 0 -14.5 6.5t-6.5 15.5v69q0 9 6.5 15t14.5 6zM245 112h75q9 0 15.5 -6t6.5 -15v-91l-53 -160q-5 -22 -20 -22h-45l52 182h-31q-9 0 -15 6.5t-6 15.5v69q0 9 6 15t15 6z" />
<glyph unicode="&#x2022;" horiz-adv-x="412" d="M260 219h-108q-36 0 -57.5 22t-21.5 61v99q0 39 21 61t57 22h109q36 0 57.5 -22t21.5 -62v-98q0 -39 -21.5 -61t-57.5 -22z" />
<glyph unicode="&#x2026;" horiz-adv-x="833" d="M689 112h75q9 0 15.5 -6t6.5 -15v-70q0 -9 -6.5 -15t-15.5 -6h-75q-9 0 -15.5 6t-6.5 15v70q0 9 6.5 15t15.5 6zM69 112h76q8 0 14.5 -6t6.5 -15v-70q0 -9 -6.5 -15t-14.5 -6h-76q-9 0 -15 6t-6 15v70q0 9 6 15t15 6zM379 112h76q8 0 14.5 -6t6.5 -15v-70q0 -9 -6.5 -15 t-14.5 -6h-76q-9 0 -15 6t-6 15v70q0 9 6 15t15 6z" />
<glyph unicode="&#x202f;" horiz-adv-x="182" />
<glyph unicode="&#x2039;" horiz-adv-x="367" d="M292 579l24 -29q6 -6 6 -12q0 -9 -13 -19l-174 -156l174 -158q12 -10 12 -20q0 -5 -5 -11l-24 -29q-9 -11 -18 -11q-7 0 -13 5l-202 180q-11 9 -11 17v49q0 12 10 19l203 181q6 6 13 6q9 0 18 -12z" />
<glyph unicode="&#x203a;" horiz-adv-x="367" d="M59 550l23 29q10 12 19 12q6 0 12 -6l203 -181q10 -7 10 -19v-49q0 -8 -11 -17l-202 -180q-6 -5 -13 -5q-9 0 -18 11l-23 29q-6 6 -6 13q0 9 12 18l174 158l-174 156q-12 10 -12 19q0 6 6 12z" />
<glyph unicode="&#x205f;" horiz-adv-x="227" />
<glyph unicode="&#x20ac;" horiz-adv-x="564" d="M274 722h230q23 0 23 -23v-40q0 -23 -23 -23h-195q-104 0 -104 -103v-50h241q22 0 22 -24v-24q0 -22 -22 -22h-241v-103h240q23 0 23 -23v-25q0 -22 -23 -22h-240v-51q0 -103 104 -103h195q23 0 23 -23v-40q0 -23 -23 -23h-231q-81 0 -126 45.5t-45 124.5v70h-79 q-23 0 -23 22v25q0 23 22 23h80v103h-79q-23 0 -23 22v25q0 23 23 23h79v68q0 81 45 126t127 45z" />
<glyph unicode="&#x2122;" horiz-adv-x="754" d="M426 712l87 -213l86 213q3 10 12 10h70q13 0 13 -13v-260q0 -13 -13 -13h-37q-12 0 -12 13v207l-81 -207q-6 -13 -15 -13h-46q-10 0 -16 13l-81 207v-207q0 -13 -12 -13h-37q-13 0 -13 13v260q0 13 13 13h71q10 0 11 -10zM119 449v219h-96q-12 0 -12 12v29q0 13 12 13 h257q13 0 13 -13v-29q0 -12 -13 -12h-96v-219q0 -13 -12 -13h-41q-12 0 -12 13z" />
</font>
</defs>
</svg>
